<svg width="80" height="88" viewBox="0 0 80 88" fill="none" xmlns="http://www.w3.org/2000/svg">
<path fill-rule="evenodd" clip-rule="evenodd" d="M40 0C47.5808 0 74.1014 15.5246 77.7533 21.8557C80.4246 26.4769 80.1111 32.2444 79.795 38.057C79.692 39.9524 79.5887 41.8527 79.5885 43.7196C79.5885 45.5877 79.6919 47.4882 79.795 49.3835C80.1108 55.1902 80.424 60.9477 77.7533 65.5752C74.1022 71.8981 47.5808 87.4227 40 87.4227C32.4192 87.4227 5.89865 71.8981 2.24672 65.567C-0.424511 60.9454 -0.11109 55.1832 0.204923 49.3734C0.307992 47.4784 0.411337 45.5785 0.411494 43.7113C0.411494 41.8432 0.308114 39.9427 0.205019 38.0474C-0.11084 32.2407 -0.424024 26.4832 2.24672 21.8557C5.89783 15.5246 32.4192 0 40 0ZM75.5884 64.316C77.8826 60.3405 77.5977 55.086 77.295 49.5187L77.2956 49.5203C77.2907 49.4295 77.2859 49.3385 77.281 49.2473C77.1841 47.4369 77.0843 45.5709 77.0837 43.7136C77.0837 41.8561 77.1835 39.9898 77.2804 38.1791C77.2853 38.0882 77.2901 37.9975 77.295 37.9069C77.5984 32.3396 77.8826 27.094 75.5884 23.1097C72.3666 17.5325 46.4237 2.51439 39.9999 2.51439C33.576 2.51439 7.63245 17.5228 4.41135 23.0998C2.11713 27.0752 2.40197 32.3298 2.70476 37.8971C2.70922 37.9805 2.71369 38.0641 2.71817 38.1479C2.81539 39.966 2.91601 41.8476 2.91601 43.7038C2.91601 45.5598 2.81541 47.4412 2.71819 49.2592C2.7137 49.3431 2.70923 49.4269 2.70476 49.5105C2.40127 55.0778 2.11711 60.3325 4.41135 64.3078C7.63311 69.8931 33.576 84.9112 39.9999 84.9112C46.4237 84.9112 72.3666 69.9018 75.5884 64.316ZM40 3.51637C46.2666 3.51637 71.5871 18.1659 74.7249 23.6137V23.6145C76.8726 27.3325 76.5973 32.4395 76.2939 37.8508L76.2805 38.1019C76.1833 39.9296 76.0826 41.8211 76.0826 43.7127C76.0826 45.5889 76.1817 47.4571 76.2781 49.2776C76.2834 49.3768 76.2887 49.4758 76.2939 49.5746C76.5973 54.986 76.8725 60.093 74.7249 63.8109C71.5867 69.258 46.2666 83.9082 40 83.9082C33.7335 83.9082 8.42267 69.258 5.27514 63.8191C3.12749 60.101 3.40275 54.9852 3.69658 49.5738C3.70181 49.4747 3.70708 49.3754 3.71235 49.2759C3.80883 47.4555 3.90783 45.5878 3.90783 43.7119C3.90783 41.8376 3.80808 39.9549 3.71126 38.1274C3.70635 38.0348 3.70145 37.9423 3.69658 37.85L3.69097 37.7434C3.40874 32.3811 3.1417 27.3072 5.27514 23.6137C8.42152 18.1666 33.7335 3.51637 40 3.51637Z" fill="#005599"/>
<path d="M29.0722 52.1777H22.5202L22.1282 47.7257H16.9482L14.9602 52.1777H12.2442L20.5042 34.3977H27.1402L29.0722 52.1777ZM17.8722 45.6817H21.9322L21.2882 38.0657L17.8722 45.6817ZM47.5679 38.4577C47.5679 38.9991 47.4839 39.4844 47.3159 39.9137C47.1666 40.3431 46.9519 40.7257 46.6719 41.0617C46.3919 41.3977 46.0652 41.6964 45.6919 41.9577C45.3186 42.2191 44.9079 42.4617 44.4599 42.6857C44.6652 42.7604 44.9079 42.8817 45.1879 43.0497C45.4679 43.1991 45.7386 43.4137 45.9999 43.6937C46.2612 43.9737 46.4759 44.3377 46.6439 44.7857C46.8306 45.2151 46.9239 45.7471 46.9239 46.3817C46.9239 47.2217 46.7466 47.9964 46.3919 48.7057C46.0372 49.4151 45.5052 50.0311 44.7959 50.5537C44.1052 51.0577 43.2466 51.4591 42.2199 51.7577C41.2119 52.0377 40.0452 52.1777 38.7199 52.1777H30.4039L34.1839 34.3977H41.5479C42.2759 34.3977 42.9946 34.4537 43.7039 34.5657C44.4319 34.6591 45.0759 34.8551 45.6359 35.1537C46.2146 35.4524 46.6812 35.8724 47.0359 36.4137C47.3906 36.9364 47.5679 37.6177 47.5679 38.4577ZM39.9519 41.8457C40.3626 41.8457 40.7079 41.7244 40.9879 41.4817C41.2866 41.2391 41.5292 40.9404 41.7159 40.5857C41.9026 40.2124 42.0426 39.8204 42.1359 39.4097C42.2292 38.9804 42.2759 38.5977 42.2759 38.2617C42.2759 37.7204 42.1452 37.2631 41.8839 36.8897C41.6412 36.4977 41.2492 36.3017 40.7079 36.3017H39.8679L38.6639 41.8457H39.9519ZM37.9359 50.4137C38.4959 50.4137 38.9626 50.2551 39.3359 49.9377C39.7092 49.6204 40.0172 49.2284 40.2599 48.7617C40.5026 48.2951 40.6706 47.8097 40.7639 47.3057C40.8759 46.7831 40.9319 46.3257 40.9319 45.9337C40.9319 45.2804 40.7919 44.7671 40.5119 44.3937C40.2506 44.0017 39.8212 43.8057 39.2239 43.8057H38.1879L36.8159 50.4137H37.9359ZM63.6139 50.6657C63.1472 50.8897 62.6619 51.1137 62.1579 51.3377C61.6725 51.5431 61.1499 51.7297 60.5899 51.8977C60.0299 52.0471 59.4139 52.1684 58.7419 52.2617C58.0885 52.3551 57.3699 52.4017 56.5859 52.4017C54.0845 52.4017 52.1525 51.8417 50.7899 50.7217C49.4459 49.6017 48.7739 47.7351 48.7739 45.1217C48.7739 43.6097 49.0072 42.1911 49.4739 40.8657C49.9405 39.5217 50.6312 38.3551 51.5459 37.3657C52.4605 36.3577 53.5899 35.5644 54.9339 34.9857C56.2779 34.4071 57.8179 34.1177 59.5539 34.1177C60.3752 34.1177 61.1219 34.1737 61.7939 34.2857C62.4845 34.3977 63.1005 34.5471 63.6419 34.7337C64.2019 34.9017 64.6965 35.0884 65.1259 35.2937C65.5739 35.4991 65.9752 35.6951 66.3299 35.8817L65.3219 41.0897H60.2819C60.3005 40.9031 60.3192 40.6604 60.3379 40.3617C60.3752 40.0631 60.4032 39.7644 60.4219 39.4657C60.4405 39.1484 60.4592 38.8404 60.4779 38.5417C60.4965 38.2431 60.5059 37.9911 60.5059 37.7857C60.5059 37.6364 60.4965 37.4684 60.4779 37.2817C60.4592 37.0764 60.4125 36.8804 60.3379 36.6937C60.2632 36.5071 60.1419 36.3577 59.9739 36.2457C59.8245 36.1151 59.6192 36.0497 59.3579 36.0497C58.8725 36.0497 58.4245 36.2551 58.0139 36.6657C57.6219 37.0577 57.2672 37.5897 56.9499 38.2617C56.6325 38.9151 56.3525 39.6617 56.1099 40.5017C55.8672 41.3417 55.6619 42.2004 55.4939 43.0777C55.3445 43.9364 55.2232 44.7857 55.1299 45.6257C55.0552 46.4657 55.0179 47.2031 55.0179 47.8377C55.0179 48.0244 55.0272 48.2577 55.0459 48.5377C55.0645 48.8177 55.1205 49.0884 55.2139 49.3497C55.3072 49.6111 55.4472 49.8351 55.6339 50.0217C55.8392 50.2084 56.1099 50.3017 56.4459 50.3017C57.0245 50.3017 57.5845 49.9471 58.1259 49.2377C58.6672 48.5097 59.1432 47.2217 59.5539 45.3737H64.7339L63.6139 50.6657Z" fill="white"/>
</svg>
