<svg width="261" height="88" viewBox="0 0 261 88" fill="none" xmlns="http://www.w3.org/2000/svg">
<path fill-rule="evenodd" clip-rule="evenodd" d="M40 0C47.5808 0 74.1014 15.5246 77.7533 21.8557C80.4246 26.4769 80.1111 32.2444 79.795 38.057C79.692 39.9524 79.5887 41.8527 79.5885 43.7196C79.5885 45.5877 79.6919 47.4882 79.795 49.3835C80.1108 55.1902 80.424 60.9477 77.7533 65.5752C74.1022 71.8981 47.5808 87.4227 40 87.4227C32.4192 87.4227 5.89865 71.8981 2.24672 65.567C-0.424511 60.9454 -0.11109 55.1832 0.204923 49.3734C0.307992 47.4784 0.411337 45.5785 0.411494 43.7113C0.411494 41.8432 0.308114 39.9427 0.205019 38.0474C-0.11084 32.2407 -0.424024 26.4832 2.24672 21.8557C5.89783 15.5246 32.4192 0 40 0ZM75.5884 64.316C77.8826 60.3405 77.5977 55.086 77.295 49.5187L77.2956 49.5203C77.2907 49.4295 77.2859 49.3385 77.281 49.2473C77.1841 47.4369 77.0843 45.5709 77.0837 43.7136C77.0837 41.8561 77.1835 39.9898 77.2804 38.1791C77.2853 38.0882 77.2901 37.9975 77.295 37.9069C77.5984 32.3396 77.8826 27.094 75.5884 23.1097C72.3666 17.5325 46.4237 2.51439 39.9999 2.51439C33.576 2.51439 7.63245 17.5228 4.41135 23.0998C2.11713 27.0752 2.40197 32.3298 2.70476 37.8971C2.70922 37.9805 2.71369 38.0641 2.71817 38.1479C2.81539 39.966 2.91601 41.8476 2.91601 43.7038C2.91601 45.5598 2.81541 47.4412 2.71819 49.2592C2.7137 49.3431 2.70923 49.4269 2.70476 49.5105C2.40127 55.0778 2.11711 60.3325 4.41135 64.3078C7.63311 69.8931 33.576 84.9112 39.9999 84.9112C46.4237 84.9112 72.3666 69.9018 75.5884 64.316ZM40 3.51637C46.2666 3.51637 71.5871 18.1659 74.7249 23.6137V23.6145C76.8726 27.3325 76.5973 32.4395 76.2939 37.8508L76.2805 38.1019C76.1833 39.9296 76.0826 41.8211 76.0826 43.7127C76.0826 45.5889 76.1817 47.4571 76.2781 49.2776C76.2834 49.3768 76.2887 49.4758 76.2939 49.5746C76.5973 54.986 76.8725 60.093 74.7249 63.8109C71.5867 69.258 46.2666 83.9082 40 83.9082C33.7335 83.9082 8.42267 69.258 5.27514 63.8191C3.12749 60.101 3.40275 54.9852 3.69658 49.5738C3.70181 49.4747 3.70708 49.3754 3.71235 49.2759C3.80883 47.4555 3.90783 45.5878 3.90783 43.7119C3.90783 41.8376 3.80808 39.9549 3.71126 38.1274C3.70635 38.0348 3.70145 37.9423 3.69658 37.85L3.69097 37.7434C3.40874 32.3811 3.1417 27.3072 5.27514 23.6137C8.42152 18.1666 33.7335 3.51637 40 3.51637Z" fill="#005599"/>
<path d="M29.0722 52.1777H22.5202L22.1282 47.7257H16.9482L14.9602 52.1777H12.2442L20.5042 34.3977H27.1402L29.0722 52.1777ZM17.8722 45.6817H21.9322L21.2882 38.0657L17.8722 45.6817ZM47.5679 38.4577C47.5679 38.9991 47.4839 39.4844 47.3159 39.9137C47.1666 40.3431 46.9519 40.7257 46.6719 41.0617C46.3919 41.3977 46.0652 41.6964 45.6919 41.9577C45.3186 42.2191 44.9079 42.4617 44.4599 42.6857C44.6652 42.7604 44.9079 42.8817 45.1879 43.0497C45.4679 43.1991 45.7386 43.4137 45.9999 43.6937C46.2612 43.9737 46.4759 44.3377 46.6439 44.7857C46.8306 45.2151 46.9239 45.7471 46.9239 46.3817C46.9239 47.2217 46.7466 47.9964 46.3919 48.7057C46.0372 49.4151 45.5052 50.0311 44.7959 50.5537C44.1052 51.0577 43.2466 51.4591 42.2199 51.7577C41.2119 52.0377 40.0452 52.1777 38.7199 52.1777H30.4039L34.1839 34.3977H41.5479C42.2759 34.3977 42.9946 34.4537 43.7039 34.5657C44.4319 34.6591 45.0759 34.8551 45.6359 35.1537C46.2146 35.4524 46.6812 35.8724 47.0359 36.4137C47.3906 36.9364 47.5679 37.6177 47.5679 38.4577ZM39.9519 41.8457C40.3626 41.8457 40.7079 41.7244 40.9879 41.4817C41.2866 41.2391 41.5292 40.9404 41.7159 40.5857C41.9026 40.2124 42.0426 39.8204 42.1359 39.4097C42.2292 38.9804 42.2759 38.5977 42.2759 38.2617C42.2759 37.7204 42.1452 37.2631 41.8839 36.8897C41.6412 36.4977 41.2492 36.3017 40.7079 36.3017H39.8679L38.6639 41.8457H39.9519ZM37.9359 50.4137C38.4959 50.4137 38.9626 50.2551 39.3359 49.9377C39.7092 49.6204 40.0172 49.2284 40.2599 48.7617C40.5026 48.2951 40.6706 47.8097 40.7639 47.3057C40.8759 46.7831 40.9319 46.3257 40.9319 45.9337C40.9319 45.2804 40.7919 44.7671 40.5119 44.3937C40.2506 44.0017 39.8212 43.8057 39.2239 43.8057H38.1879L36.8159 50.4137H37.9359ZM63.6139 50.6657C63.1472 50.8897 62.6619 51.1137 62.1579 51.3377C61.6725 51.5431 61.1499 51.7297 60.5899 51.8977C60.0299 52.0471 59.4139 52.1684 58.7419 52.2617C58.0885 52.3551 57.3699 52.4017 56.5859 52.4017C54.0845 52.4017 52.1525 51.8417 50.7899 50.7217C49.4459 49.6017 48.7739 47.7351 48.7739 45.1217C48.7739 43.6097 49.0072 42.1911 49.4739 40.8657C49.9405 39.5217 50.6312 38.3551 51.5459 37.3657C52.4605 36.3577 53.5899 35.5644 54.9339 34.9857C56.2779 34.4071 57.8179 34.1177 59.5539 34.1177C60.3752 34.1177 61.1219 34.1737 61.7939 34.2857C62.4845 34.3977 63.1005 34.5471 63.6419 34.7337C64.2019 34.9017 64.6965 35.0884 65.1259 35.2937C65.5739 35.4991 65.9752 35.6951 66.3299 35.8817L65.3219 41.0897H60.2819C60.3005 40.9031 60.3192 40.6604 60.3379 40.3617C60.3752 40.0631 60.4032 39.7644 60.4219 39.4657C60.4405 39.1484 60.4592 38.8404 60.4779 38.5417C60.4965 38.2431 60.5059 37.9911 60.5059 37.7857C60.5059 37.6364 60.4965 37.4684 60.4779 37.2817C60.4592 37.0764 60.4125 36.8804 60.3379 36.6937C60.2632 36.5071 60.1419 36.3577 59.9739 36.2457C59.8245 36.1151 59.6192 36.0497 59.3579 36.0497C58.8725 36.0497 58.4245 36.2551 58.0139 36.6657C57.6219 37.0577 57.2672 37.5897 56.9499 38.2617C56.6325 38.9151 56.3525 39.6617 56.1099 40.5017C55.8672 41.3417 55.6619 42.2004 55.4939 43.0777C55.3445 43.9364 55.2232 44.7857 55.1299 45.6257C55.0552 46.4657 55.0179 47.2031 55.0179 47.8377C55.0179 48.0244 55.0272 48.2577 55.0459 48.5377C55.0645 48.8177 55.1205 49.0884 55.2139 49.3497C55.3072 49.6111 55.4472 49.8351 55.6339 50.0217C55.8392 50.2084 56.1099 50.3017 56.4459 50.3017C57.0245 50.3017 57.5845 49.9471 58.1259 49.2377C58.6672 48.5097 59.1432 47.2217 59.5539 45.3737H64.7339L63.6139 50.6657Z" fill="white"/>
<path d="M91.9219 34.7852H94.6758L103.371 48.7305V34.7852H105.586V52H102.973L94.1484 38.0664V52H91.9219V34.7852ZM113.965 50.6406C115.363 50.6406 116.32 50.1133 116.836 49.0586C117.359 47.9961 117.621 46.8164 117.621 45.5195C117.621 44.3477 117.434 43.3945 117.059 42.6602C116.465 41.5039 115.441 40.9258 113.988 40.9258C112.699 40.9258 111.762 41.418 111.176 42.4023C110.59 43.3867 110.297 44.5742 110.297 45.9648C110.297 47.3008 110.59 48.4141 111.176 49.3047C111.762 50.1953 112.691 50.6406 113.965 50.6406ZM114.047 39.0859C115.664 39.0859 117.031 39.625 118.148 40.7031C119.266 41.7812 119.824 43.3672 119.824 45.4609C119.824 47.4844 119.332 49.1562 118.348 50.4766C117.363 51.7969 115.836 52.457 113.766 52.457C112.039 52.457 110.668 51.875 109.652 50.7109C108.637 49.5391 108.129 47.9688 108.129 46C108.129 43.8906 108.664 42.2109 109.734 40.9609C110.805 39.7109 112.242 39.0859 114.047 39.0859ZM123.375 39.4492L126.727 49.668L130.23 39.4492H132.539L127.805 52H125.555L120.926 39.4492H123.375ZM139.57 39.168C140.461 39.168 141.324 39.3789 142.16 39.8008C142.996 40.2148 143.633 40.7539 144.07 41.418C144.492 42.0508 144.773 42.7891 144.914 43.6328C145.039 44.2109 145.102 45.1328 145.102 46.3984H135.902C135.941 47.6719 136.242 48.6953 136.805 49.4688C137.367 50.2344 138.238 50.6172 139.418 50.6172C140.52 50.6172 141.398 50.2539 142.055 49.5273C142.43 49.1055 142.695 48.6172 142.852 48.0625H144.926C144.871 48.5234 144.688 49.0391 144.375 49.6094C144.07 50.1719 143.727 50.6328 143.344 50.9922C142.703 51.6172 141.91 52.0391 140.965 52.2578C140.457 52.3828 139.883 52.4453 139.242 52.4453C137.68 52.4453 136.355 51.8789 135.27 50.7461C134.184 49.6055 133.641 48.0117 133.641 45.9648C133.641 43.9492 134.188 42.3125 135.281 41.0547C136.375 39.7969 137.805 39.168 139.57 39.168ZM142.934 44.7227C142.848 43.8086 142.648 43.0781 142.336 42.5312C141.758 41.5156 140.793 41.0078 139.441 41.0078C138.473 41.0078 137.66 41.3594 137.004 42.0625C136.348 42.7578 136 43.6445 135.961 44.7227H142.934ZM147.762 34.7852H149.871V52H147.762V34.7852ZM165.035 41.4766C165.777 40.9531 166.289 40.5273 166.57 40.1992C167.031 39.668 167.262 39.0781 167.262 38.4297C167.262 37.9219 167.094 37.4844 166.758 37.1172C166.422 36.75 165.969 36.5664 165.398 36.5664C164.531 36.5664 163.93 36.8555 163.594 37.4336C163.422 37.7305 163.336 38.0547 163.336 38.4062C163.336 38.8828 163.465 39.3398 163.723 39.7773C163.988 40.2148 164.426 40.7812 165.035 41.4766ZM164.496 50.5469C165.363 50.5469 166.109 50.3477 166.734 49.9492C167.359 49.5508 167.84 49.1055 168.176 48.6133L164.285 43.8672C163.184 44.6016 162.465 45.1641 162.129 45.5547C161.613 46.1406 161.355 46.8555 161.355 47.6992C161.355 48.6133 161.688 49.3164 162.352 49.8086C163.023 50.3008 163.738 50.5469 164.496 50.5469ZM163.113 42.4258C162.387 41.5898 161.898 40.8867 161.648 40.3164C161.406 39.7461 161.285 39.1953 161.285 38.6641C161.285 37.5547 161.66 36.6367 162.41 35.9102C163.16 35.1758 164.164 34.8086 165.422 34.8086C166.617 34.8086 167.551 35.1484 168.223 35.8281C168.895 36.5078 169.23 37.3203 169.23 38.2656C169.23 39.3672 168.883 40.332 168.188 41.1602C167.781 41.6445 167.102 42.2031 166.148 42.8359L169.289 46.5859C169.5 45.9609 169.645 45.4961 169.723 45.1914C169.809 44.8789 169.895 44.4453 169.98 43.8906H171.984C171.852 44.9922 171.586 46.0508 171.188 47.0664C170.789 48.0742 170.59 48.4805 170.59 48.2852L173.648 52H170.93L169.312 50.0312C168.672 50.7266 168.086 51.2344 167.555 51.5547C166.625 52.1172 165.555 52.3984 164.344 52.3984C162.555 52.3984 161.254 51.918 160.441 50.957C159.629 49.9883 159.223 48.8984 159.223 47.6875C159.223 46.3828 159.617 45.293 160.406 44.418C160.891 43.8867 161.793 43.2227 163.113 42.4258ZM189.949 34.3164C192.129 34.3164 193.82 34.8906 195.023 36.0391C196.227 37.1875 196.895 38.4922 197.027 39.9531H194.754C194.496 38.8438 193.98 37.9648 193.207 37.3164C192.441 36.668 191.363 36.3438 189.973 36.3438C188.277 36.3438 186.906 36.9414 185.859 38.1367C184.82 39.3242 184.301 41.1484 184.301 43.6094C184.301 45.625 184.77 47.2617 185.707 48.5195C186.652 49.7695 188.059 50.3945 189.926 50.3945C191.645 50.3945 192.953 49.7344 193.852 48.4141C194.328 47.7188 194.684 46.8047 194.918 45.6719H197.191C196.988 47.4844 196.316 49.0039 195.176 50.2305C193.809 51.707 191.965 52.4453 189.645 52.4453C187.645 52.4453 185.965 51.8398 184.605 50.6289C182.816 49.0273 181.922 46.5547 181.922 43.2109C181.922 40.6719 182.594 38.5898 183.938 36.9648C185.391 35.1992 187.395 34.3164 189.949 34.3164ZM204.738 50.6406C206.137 50.6406 207.094 50.1133 207.609 49.0586C208.133 47.9961 208.395 46.8164 208.395 45.5195C208.395 44.3477 208.207 43.3945 207.832 42.6602C207.238 41.5039 206.215 40.9258 204.762 40.9258C203.473 40.9258 202.535 41.418 201.949 42.4023C201.363 43.3867 201.07 44.5742 201.07 45.9648C201.07 47.3008 201.363 48.4141 201.949 49.3047C202.535 50.1953 203.465 50.6406 204.738 50.6406ZM204.82 39.0859C206.438 39.0859 207.805 39.625 208.922 40.7031C210.039 41.7812 210.598 43.3672 210.598 45.4609C210.598 47.4844 210.105 49.1562 209.121 50.4766C208.137 51.7969 206.609 52.457 204.539 52.457C202.812 52.457 201.441 51.875 200.426 50.7109C199.41 49.5391 198.902 47.9688 198.902 46C198.902 43.8906 199.438 42.2109 200.508 40.9609C201.578 39.7109 203.016 39.0859 204.82 39.0859ZM213.117 39.4492H215.203V41.2305C215.703 40.6133 216.156 40.1641 216.562 39.8828C217.258 39.4062 218.047 39.168 218.93 39.168C219.93 39.168 220.734 39.4141 221.344 39.9062C221.688 40.1875 222 40.6016 222.281 41.1484C222.75 40.4766 223.301 39.9805 223.934 39.6602C224.566 39.332 225.277 39.168 226.066 39.168C227.754 39.168 228.902 39.7773 229.512 40.9961C229.84 41.6523 230.004 42.5352 230.004 43.6445V52H227.812V43.2812C227.812 42.4453 227.602 41.8711 227.18 41.5586C226.766 41.2461 226.258 41.0898 225.656 41.0898C224.828 41.0898 224.113 41.3672 223.512 41.9219C222.918 42.4766 222.621 43.4023 222.621 44.6992V52H220.477V43.8086C220.477 42.957 220.375 42.3359 220.172 41.9453C219.852 41.3594 219.254 41.0664 218.379 41.0664C217.582 41.0664 216.855 41.375 216.199 41.9922C215.551 42.6094 215.227 43.7266 215.227 45.3438V52H213.117V39.4492ZM233.109 39.5078H235.254V52H233.109V39.5078ZM233.109 34.7852H235.254V37.1758H233.109V34.7852ZM243.293 39.0859C244.707 39.0859 245.855 39.4297 246.738 40.1172C247.629 40.8047 248.164 41.9883 248.344 43.668H246.293C246.168 42.8945 245.883 42.2539 245.438 41.7461C244.992 41.2305 244.277 40.9727 243.293 40.9727C241.949 40.9727 240.988 41.6289 240.41 42.9414C240.035 43.793 239.848 44.8438 239.848 46.0938C239.848 47.3516 240.113 48.4102 240.645 49.2695C241.176 50.1289 242.012 50.5586 243.152 50.5586C244.027 50.5586 244.719 50.293 245.227 49.7617C245.742 49.2227 246.098 48.4883 246.293 47.5586H248.344C248.109 49.2227 247.523 50.4414 246.586 51.2148C245.648 51.9805 244.449 52.3633 242.988 52.3633C241.348 52.3633 240.039 51.7656 239.062 50.5703C238.086 49.3672 237.598 47.8672 237.598 46.0703C237.598 43.8672 238.133 42.1523 239.203 40.9258C240.273 39.6992 241.637 39.0859 243.293 39.0859ZM251.707 48.0625C251.77 48.7656 251.945 49.3047 252.234 49.6797C252.766 50.3594 253.688 50.6992 255 50.6992C255.781 50.6992 256.469 50.5312 257.062 50.1953C257.656 49.8516 257.953 49.3242 257.953 48.6133C257.953 48.0742 257.715 47.6641 257.238 47.3828C256.934 47.2109 256.332 47.0117 255.434 46.7852L253.758 46.3633C252.688 46.0977 251.898 45.8008 251.391 45.4727C250.484 44.9023 250.031 44.1133 250.031 43.1055C250.031 41.918 250.457 40.957 251.309 40.2227C252.168 39.4883 253.32 39.1211 254.766 39.1211C256.656 39.1211 258.02 39.6758 258.855 40.7852C259.379 41.4883 259.633 42.2461 259.617 43.0586H257.625C257.586 42.582 257.418 42.1484 257.121 41.7578C256.637 41.2031 255.797 40.9258 254.602 40.9258C253.805 40.9258 253.199 41.0781 252.785 41.3828C252.379 41.6875 252.176 42.0898 252.176 42.5898C252.176 43.1367 252.445 43.5742 252.984 43.9023C253.297 44.0977 253.758 44.2695 254.367 44.418L255.762 44.7578C257.277 45.125 258.293 45.4805 258.809 45.8242C259.629 46.3633 260.039 47.2109 260.039 48.3672C260.039 49.4844 259.613 50.4492 258.762 51.2617C257.918 52.0742 256.629 52.4805 254.895 52.4805C253.027 52.4805 251.703 52.0586 250.922 51.2148C250.148 50.3633 249.734 49.3125 249.68 48.0625H251.707Z" fill="#333333"/>
</svg>
