<svg width="30" height="30" viewBox="0 0 30 30" fill="none" xmlns="http://www.w3.org/2000/svg">
<path d="M15 5.53125C14.8333 5.53125 14.6771 5.5575 14.5312 5.61C14.3854 5.66167 14.25 5.75 14.125 5.875L5.875 14.125C5.625 14.375 5.5 14.6721 5.5 15.0163C5.5 15.3596 5.625 15.6563 5.875 15.9063C6.125 16.1563 6.41667 16.2812 6.75 16.2812C7.08333 16.2812 7.375 16.1563 7.625 15.9063L13.75 9.78125V23.7813C13.75 24.1354 13.87 24.4271 14.11 24.6562C14.3492 24.8854 14.6458 25 15 25C15.3542 25 15.6512 24.8804 15.8912 24.6412C16.1304 24.4012 16.25 24.1042 16.25 23.75V9.78125L22.375 15.9063C22.625 16.1563 22.9167 16.2812 23.25 16.2812C23.5833 16.2812 23.875 16.1563 24.125 15.9063C24.375 15.6563 24.5 15.3596 24.5 15.0163C24.5 14.6721 24.375 14.375 24.125 14.125L15.875 5.875C15.75 5.75 15.6146 5.66167 15.4687 5.61C15.3229 5.5575 15.1667 5.53125 15 5.53125Z" fill="white"/>
</svg>
