<svg width="36" height="36" viewBox="0 0 36 36" fill="none" xmlns="http://www.w3.org/2000/svg">
<g opacity="0.9">
<path d="M31 9.50001C31 12.2878 28.7322 14.5556 25.9444 14.5556C23.1567 14.5556 20.8889 12.2878 20.8889 9.50001C20.8889 6.71223 23.1567 4.44445 25.9444 4.44445C28.7322 4.44445 31 6.71223 31 9.50001ZM28.1111 17.1411C27.3889 17.3289 26.6667 17.4445 25.9444 17.4445C23.8386 17.4406 21.8201 16.6024 20.3311 15.1134C18.842 13.6243 18.0038 11.6058 18 9.50001C18 7.37667 18.8378 5.45556 20.1667 4.02556C19.9045 3.70423 19.574 3.44543 19.1992 3.26802C18.8244 3.0906 18.4147 2.99904 18 3.00001C16.4111 3.00001 15.1111 4.30001 15.1111 5.8889V6.30779C10.8211 7.5789 7.88889 11.5222 7.88889 16V24.6667L5 27.5556V29H31V27.5556L28.1111 24.6667V17.1411ZM18 33.3333C19.6033 33.3333 20.8889 32.0478 20.8889 30.4445H15.1111C15.1111 31.2106 15.4155 31.9454 15.9572 32.4872C16.499 33.029 17.2338 33.3333 18 33.3333Z" fill="#173F5F"/>
</g>
</svg>
