<svg width="30" height="30" viewBox="0 0 30 30" fill="none" xmlns="http://www.w3.org/2000/svg">
<path d="M20.1307 20.1305H18.6643V18.6641H20.1307V20.1305ZM15.7314 20.1305H17.1979V18.6641H15.7314V20.1305ZM23.0636 20.1305H21.5971V18.6641H23.0636V20.1305Z" fill="#F0771C"/>
<path fill-rule="evenodd" clip-rule="evenodd" d="M8.39926 12.7985V9.13248C8.39926 8.45847 8.53202 7.79106 8.78995 7.16836C9.04788 6.54566 9.42594 5.97986 9.90253 5.50327C10.3791 5.02667 10.9449 4.64862 11.5676 4.39069C12.1903 4.13276 12.8577 4 13.5317 4C14.2057 4 14.8732 4.13276 15.4959 4.39069C16.1186 4.64862 16.6844 5.02667 17.1609 5.50327C17.6375 5.97986 18.0156 6.54566 18.2735 7.16836C18.5315 7.79106 18.6642 8.45847 18.6642 9.13248V12.7985H20.8638C21.4472 12.7985 22.0067 13.0303 22.4192 13.4428C22.8317 13.8553 23.0635 14.4148 23.0635 14.9982V15.8047C23.8922 15.973 24.6373 16.4226 25.1725 17.0774C25.7076 17.7321 26 18.5518 26 19.3974C26 20.2431 25.7076 21.0627 25.1725 21.7175C24.6373 22.3723 23.8922 22.8219 23.0635 22.9902V23.7967C23.0635 24.3801 22.8317 24.9396 22.4192 25.3521C22.0067 25.7646 21.4472 25.9963 20.8638 25.9963H6.19963C5.61625 25.9963 5.05677 25.7646 4.64426 25.3521C4.23175 24.9396 4 24.3801 4 23.7967V14.9982C4 14.4148 4.23175 13.8553 4.64426 13.4428C5.05677 13.0303 5.61625 12.7985 6.19963 12.7985H8.39926ZM9.86569 9.13248C9.86569 8.16018 10.2519 7.2277 10.9394 6.54018C11.627 5.85267 12.5594 5.46642 13.5317 5.46642C14.504 5.46642 15.4365 5.85267 16.124 6.54018C16.8116 7.2277 17.1978 8.16018 17.1978 9.13248V12.7985H9.86569V9.13248ZM16.4646 17.1978C15.8812 17.1978 15.3217 17.4295 14.9092 17.8421C14.4967 18.2546 14.265 18.814 14.265 19.3974C14.265 19.9808 14.4967 20.5403 14.9092 20.9528C15.3217 21.3653 15.8812 21.5971 16.4646 21.5971H22.3303C22.9136 21.5971 23.4731 21.3653 23.8856 20.9528C24.2982 20.5403 24.5299 19.9808 24.5299 19.3974C24.5299 18.814 24.2982 18.2546 23.8856 17.8421C23.4731 17.4295 22.9136 17.1978 22.3303 17.1978H16.4646Z" fill="#F0771C"/>
</svg>
