<svg width="26" height="26" viewBox="0 0 26 26" fill="none" xmlns="http://www.w3.org/2000/svg">
<path d="M13 0C5.82033 0 0 5.82026 0 13C0 20.1797 5.82026 26 13 26C20.1797 26 26 20.1797 26 13C26 5.82026 20.1797 0 13 0ZM13 4.87493C13.4489 4.87493 13.8124 5.23878 13.8124 5.68735V12.5301L19.0303 15.5514C19.4188 15.7758 19.5593 16.2672 19.3349 16.656C19.1105 17.0445 18.6063 17.1723 18.2179 16.9479C16.3453 15.8657 14.46 14.7758 12.594 13.6978C12.3514 13.5573 12.1876 13.3 12.1876 12.9996V5.68709C12.1876 5.23822 12.5515 4.87467 13 4.87467L13 4.87493Z" fill="#4F4F4F"/>
</svg>
