<svg width="46" height="46" viewBox="0 0 46 46" fill="none" xmlns="http://www.w3.org/2000/svg">
<circle cx="23" cy="23" r="23" fill="#E1524C"/>
<path d="M22.9998 24.5276L29.814 31.3526C30.018 31.5566 30.2946 31.6712 30.5831 31.6712C30.8716 31.6712 31.1483 31.5566 31.3523 31.3526C31.5563 31.1486 31.6709 30.8719 31.6709 30.5834C31.6709 30.2949 31.5563 30.0183 31.3523 29.8143L24.5273 23.0001L31.3523 16.1859C31.5563 15.9819 31.6709 15.7053 31.6709 15.4168C31.6709 15.1283 31.5563 14.8516 31.3523 14.6476C31.1483 14.4436 30.8716 14.329 30.5831 14.329C30.2946 14.329 30.018 14.4436 29.814 14.6476L22.9998 21.4726L16.1856 14.6476C16.0849 14.5461 15.9651 14.4655 15.8331 14.4105C15.7011 14.3555 15.5595 14.3271 15.4165 14.3271C15.2735 14.3271 15.1319 14.3555 14.9998 14.4105C14.8678 14.4655 14.748 14.5461 14.6473 14.6476C14.5458 14.7483 14.4652 14.8681 14.4102 15.0001C14.3552 15.1322 14.3269 15.2737 14.3269 15.4168C14.3269 15.5598 14.3552 15.7014 14.4102 15.8334C14.4652 15.9654 14.5458 16.0852 14.6473 16.1859L21.4723 23.0001L14.6473 29.8143C14.5458 29.915 14.4652 30.0348 14.4102 30.1668C14.3552 30.2988 14.3269 30.4404 14.3269 30.5834C14.3269 30.7264 14.3552 30.868 14.4102 31.0001C14.4652 31.1321 14.5458 31.2519 14.6473 31.3526C14.748 31.4541 14.8678 31.5347 14.9998 31.5897C15.1319 31.6447 15.2735 31.673 15.4165 31.673C15.5595 31.673 15.7011 31.6447 15.8331 31.5897C15.9651 31.5347 16.0849 31.4541 16.1856 31.3526L22.9998 24.5276Z" fill="#FCFCFC"/>
</svg>
