<svg width="30" height="20" viewBox="0 0 30 20" fill="none" xmlns="http://www.w3.org/2000/svg">
<mask id="mask0_625_741" style="mask-type:alpha" maskUnits="userSpaceOnUse" x="0" y="0" width="30" height="20">
<rect width="29.0909" height="19.3939" rx="1" fill="#D9D9D9"/>
</mask>
<g mask="url(#mask0_625_741)">
<path fill-rule="evenodd" clip-rule="evenodd" d="M-1.93994 0H34.9085V1.49244H-1.93994V0ZM-1.93994 2.98485H34.9085V4.47729H-1.93994V2.98485ZM-1.93994 5.9659H34.9085V7.4621H-1.93994V5.9659ZM-1.93994 8.95075H34.9085V10.4432H-1.93994V8.95075ZM-1.93994 11.9356H34.9085V13.428H-1.93994V11.9356ZM-1.93994 14.9166H34.9085V16.4091H-1.93994V14.9166ZM-1.93994 17.9015H34.9085V19.3939H-1.93994V17.9015Z" fill="#BD3D44"/>
<path fill-rule="evenodd" clip-rule="evenodd" d="M-1.93994 1.49341H34.9085V2.98581H-1.93994V1.49341ZM-1.93994 4.47822H34.9085V5.96686H-1.93994V4.47822ZM-1.93994 7.45931H34.9085V8.95171H-1.93994V7.45931ZM-1.93994 10.4442H34.9085V11.9366H-1.93994V10.4442ZM-1.93994 13.429H34.9085V14.9214H-1.93994V13.429ZM-1.93994 16.4101H34.9085V17.9025H-1.93994V16.4101Z" fill="white"/>
<path fill-rule="evenodd" clip-rule="evenodd" d="M-1.93994 0H12.7987V10.4432H-1.93994V0Z" fill="#192F5D"/>
<path fill-rule="evenodd" clip-rule="evenodd" d="M-0.712112 0.448486L-0.575748 0.861294H-0.14391L-0.492435 1.11511L-0.359829 1.53176L-0.712112 1.27418L-1.0606 1.52796L-0.928031 1.11511L-1.28027 0.861294H-0.840879L-0.712112 0.448486ZM1.74623 0.448486L1.8788 0.861294H2.31439L1.96211 1.11511L2.09472 1.53176L1.74623 1.27418L1.39395 1.52796L1.52651 1.11511L1.17803 0.861294H1.60987L1.74623 0.448486ZM4.20078 0.448486L4.33714 0.861335H4.76518L4.4167 1.11515L4.54922 1.5318L4.19698 1.27422L3.84849 1.528L3.98106 1.11515L3.62878 0.861335H4.06441L4.20078 0.448486ZM6.65912 0.448486L6.79165 0.861335H7.22728L6.875 1.11515L7.01136 1.5318L6.65908 1.27422L6.30684 1.528L6.4432 1.11515L6.09092 0.861335H6.52276L6.65912 0.448486ZM9.11367 0.448486L9.25003 0.861335H9.68183L9.33334 1.11515L9.46591 1.5318L9.11363 1.27422L8.76514 1.528L8.89775 1.11515L8.54926 0.861335H8.98106L9.11367 0.448486ZM11.572 0.448486L11.7045 0.861335H12.1402L11.7879 1.11515L11.9243 1.5318L11.572 1.27422L11.2197 1.528L11.3561 1.11515L11.0038 0.861335H11.4394L11.572 0.448486ZM0.518959 1.49386L0.651525 1.90679H1.08712L0.734838 2.16053L0.863646 2.57346L0.522717 2.31964L0.170474 2.57342L0.295444 2.16057L-0.0454452 1.90675H0.386393L0.518959 1.49386ZM2.9735 1.49386L3.10987 1.90679H3.54167L3.18938 2.16053L3.32579 2.57346L2.97346 2.31964L2.62122 2.57342L2.75759 2.16057L2.4053 1.90675H2.8409L2.9735 1.49386ZM5.43185 1.49386L5.56437 1.90679H6.00001L5.64773 2.16053L5.78029 2.57346L5.43181 2.31964L5.07956 2.57342L5.21213 2.16061L4.86365 1.90679H5.29548L5.43185 1.49386ZM7.88639 1.49386L8.02276 1.90679H8.45455L8.10227 2.16053L8.23864 2.57346L7.88635 2.31964L7.53787 2.57342L7.67047 2.16057L7.31819 1.90675H7.75758L7.88639 1.49386ZM10.3447 1.49386L10.4773 1.90679H10.9129L10.5606 2.16053L10.6932 2.57346L10.3447 2.31964L9.99241 2.57342L10.125 2.16057L9.77654 1.90675H10.2083L10.3447 1.49386ZM-0.712112 2.53564L-0.575748 2.95608H-0.14391L-0.492435 3.20986L-0.359829 3.62275L-0.712112 3.36517L-1.0606 3.62275L-0.928031 3.20606L-1.28027 2.95232H-0.840879L-0.712112 2.53564ZM1.74623 2.53564L1.8788 2.9522H2.31439L1.96211 3.20598L2.09472 3.61891L1.74623 3.36129L1.39395 3.61887L1.52651 3.20222L1.17803 2.94845H1.60987L1.74623 2.53564ZM4.20078 2.53564L4.33714 2.95228H4.76518L4.4167 3.20606L4.54922 3.61899L4.19698 3.36137L3.84849 3.61895L3.98106 3.2023L3.62878 2.94853H4.06441L4.20078 2.53564ZM6.65912 2.53564L6.79165 2.95228H7.22728L6.875 3.20606L7.01136 3.61899L6.65908 3.36137L6.30684 3.61895L6.4432 3.2023L6.09092 2.94853H6.52276L6.65912 2.53564ZM9.11367 2.53564L9.25003 2.95228H9.68183L9.33334 3.20602L9.46591 3.61895L9.11363 3.36133L8.76514 3.61891L8.89775 3.20226L8.54926 2.94849H8.98106L9.11367 2.53564ZM11.572 2.53564L11.7045 2.95228H12.1402L11.7879 3.20606L11.9243 3.61899L11.572 3.36137L11.2197 3.61895L11.3561 3.2023L11.0038 2.94853H11.4394L11.572 2.53564ZM0.518959 3.58105L0.651525 3.99394H1.08712L0.734838 4.24768L0.867444 4.66436L0.518959 4.40679L0.166676 4.66057L0.299242 4.24772L-0.0492432 3.99394H0.382636L0.518959 3.58105ZM2.9735 3.58105L3.10987 3.99394H3.54167L3.18938 4.24768L3.32579 4.66436L2.97346 4.40679L2.62122 4.66057L2.75759 4.24772L2.4053 3.99394H2.8409L2.9735 3.58105ZM5.43185 3.58105L5.56437 3.99394H6.00001L5.64773 4.24768L5.78029 4.66436L5.43181 4.40679L5.07956 4.66057L5.21213 4.24772L4.86365 3.99394H5.29548L5.43185 3.58105ZM7.88639 3.58105L8.02276 3.99394H8.45455L8.10607 4.24768L8.23864 4.66436L7.88635 4.40679L7.53787 4.66057L7.67047 4.24772L7.31819 3.99394H7.75758L7.88639 3.58105ZM10.3447 3.58105L10.4773 3.99394H10.9129L10.5606 4.24768L10.6932 4.66436L10.3447 4.40679L9.99241 4.66057L10.125 4.24772L9.77654 3.99394H10.2083L10.3447 3.58105ZM-0.712112 4.62651L-0.575748 5.03939H-0.14391L-0.492435 5.29313L-0.359829 5.70982L-0.712112 5.45224L-1.0606 5.70602L-0.928031 5.29317L-1.28027 5.03939H-0.840879L-0.712112 4.62651ZM1.74623 4.62651L1.8788 5.03939H2.31439L1.96211 5.29313L2.09472 5.70606L1.74623 5.45224L1.39395 5.70602L1.52651 5.29317L1.17803 5.03939H1.60987L1.74623 4.62651ZM4.20078 4.62651L4.33714 5.03939H4.76518L4.4167 5.29313L4.54922 5.70982L4.19698 5.45224L3.84849 5.70602L3.98106 5.29317L3.62878 5.03939H4.06441L4.20078 4.62651ZM6.65912 4.62651L6.79165 5.03939H7.22728L6.875 5.29313L7.01136 5.70982L6.65908 5.45224L6.30684 5.70602L6.4432 5.29317L6.09092 5.03939H6.52276L6.65912 4.62651ZM9.11367 4.62651L9.25003 5.03939H9.68183L9.33334 5.29313L9.46591 5.70982L9.11363 5.45224L8.76514 5.70602L8.89775 5.29317L8.54926 5.03939H8.98106L9.11367 4.62651ZM11.572 4.62651L11.7045 5.03939H12.1402L11.7879 5.29313L11.9243 5.70982L11.572 5.45224L11.2197 5.70602L11.3561 5.29317L11.0038 5.03939H11.4394L11.572 4.62651ZM0.518959 5.67196L0.651525 6.08485H1.08712L0.734838 6.33859L0.867444 6.75152L0.518959 6.49394L0.166676 6.75152L0.299242 6.33483L-0.0492432 6.08105H0.382636L0.518959 5.67196ZM2.9735 5.67196L3.10987 6.08485H3.54167L3.18938 6.33859L3.32579 6.75152L2.97346 6.49394L2.62122 6.75152L2.75759 6.33483L2.4053 6.08105H2.8409L2.9735 5.67196ZM5.43185 5.67196L5.56437 6.08485H6.00001L5.64773 6.33859L5.78029 6.75152L5.43181 6.49394L5.07956 6.75152L5.21213 6.33483L4.86365 6.08105H5.29548L5.43185 5.67196ZM7.88639 5.67196L8.02276 6.08485H8.45455L8.10607 6.33859L8.23864 6.75152L7.88635 6.49394L7.53787 6.75152L7.67047 6.33483L7.31819 6.08105H7.75758L7.88639 5.67196ZM10.3447 5.67196L10.4773 6.08485H10.9129L10.5606 6.33859L10.6932 6.75152L10.3447 6.49394L9.99241 6.75152L10.125 6.33483L9.77654 6.08105H10.2083L10.3447 5.67196ZM-0.712112 6.71362L-0.575748 7.1303H-0.14391L-0.492435 7.38404L-0.359829 7.79317L-0.712112 7.53939L-1.0606 7.79313L-0.928031 7.38028L-1.28027 7.12651H-0.840879L-0.712112 6.71362ZM1.74623 6.71362L1.8788 7.1303H2.31439L1.96211 7.38404L2.09851 7.79317L1.74619 7.53939L1.39395 7.79313L1.53031 7.38028L1.17803 7.12651H1.60987L1.74623 6.71362ZM4.20078 6.71362L4.33714 7.1303H4.76518L4.4167 7.38404L4.54922 7.79317L4.19698 7.53939L3.84849 7.79313L3.98106 7.38028L3.62878 7.12651H4.06441L4.20078 6.71362ZM6.65912 6.71362L6.79165 7.1303H7.22728L6.875 7.38404L7.01136 7.79317L6.65908 7.53939L6.30684 7.79313L6.4432 7.38028L6.09092 7.12651H6.52276L6.65912 6.71362ZM9.11367 6.71362L9.25003 7.1303H9.68183L9.33334 7.38404L9.46591 7.79317L9.11363 7.53939L8.76514 7.79313L8.89775 7.38028L8.54926 7.12651H8.98106L9.11367 6.71362ZM11.572 6.71362L11.7045 7.1303H12.1402L11.7879 7.38404L11.9243 7.79317L11.572 7.53939L11.2197 7.79313L11.3561 7.38028L11.0038 7.12651H11.4394L11.572 6.71362ZM0.518959 7.75907L0.651525 8.17196H1.08712L0.734838 8.42574L0.867444 8.84243L0.518959 8.58485L0.166676 8.83859L0.299242 8.42574L-0.0492432 8.17196H0.382636L0.518959 7.75907ZM2.9735 7.75907L3.10987 8.17196H3.54167L3.18938 8.42574L3.32579 8.84243L2.97346 8.58485L2.62122 8.83859L2.75759 8.42574L2.4053 8.17196H2.8409L2.9735 7.75907ZM5.43185 7.75907L5.56437 8.17196H6.00001L5.64773 8.42574L5.78029 8.84243L5.43181 8.58485L5.07956 8.83859L5.21213 8.42574L4.86365 8.17196H5.29548L5.43185 7.75907ZM7.88639 7.75907L8.02276 8.17196H8.45455L8.10607 8.42574L8.23864 8.84243L7.88635 8.58485L7.53787 8.83859L7.67047 8.42574L7.31819 8.17196H7.75758L7.88639 7.75907ZM10.3447 7.75907L10.4773 8.17196H10.9129L10.5606 8.42574L10.6932 8.84243L10.3447 8.58485L9.99241 8.83859L10.125 8.42574L9.77654 8.17196H10.2083L10.3447 7.75907ZM-0.712112 8.80453L-0.575748 9.21741H-0.14391L-0.492435 9.47119L-0.359829 9.88408L-0.712112 9.6303L-1.0606 9.88404L-0.928031 9.46739L-1.28027 9.21362H-0.840879L-0.712112 8.80453ZM1.74623 8.80453L1.8788 9.21741H2.31439L1.96211 9.47119L2.09851 9.88408L1.74619 9.6303L1.39395 9.88404L1.53031 9.46739L1.17803 9.21362H1.60987L1.74623 8.80453ZM4.20078 8.80453L4.33714 9.21741H4.76518L4.42425 9.47119L4.55682 9.88408L4.20453 9.6303L3.85605 9.88404L3.98866 9.46739L3.63637 9.21362H4.07197L4.20078 8.80453ZM6.65912 8.80453L6.79165 9.21741H7.22728L6.875 9.47119L7.01136 9.88408L6.65908 9.6303L6.30684 9.88404L6.4432 9.46739L6.09092 9.21362H6.52276L6.65912 8.80453ZM9.11367 8.80453L9.25003 9.21741H9.68183L9.33334 9.47119L9.46591 9.88408L9.11363 9.6303L8.76514 9.88404L8.89775 9.46739L8.54926 9.21362H8.98106L9.11367 8.80453ZM11.572 8.80453L11.7045 9.21741H12.1402L11.7879 9.47119L11.9243 9.88408L11.572 9.6303L11.2197 9.88404L11.3561 9.46739L11.0038 9.21362H11.4394L11.572 8.80453Z" fill="white"/>
</g>
</svg>
