<svg width="30" height="30" viewBox="0 0 30 30" fill="none" xmlns="http://www.w3.org/2000/svg">
<path d="M23.8778 20.6798C24.4771 20.6798 24.9824 20.8889 25.3935 21.307C25.8047 21.7251 26.0068 22.213 25.9998 22.7705L17.6059 25.9064L10.2887 23.8158V14.4079H12.327L19.9265 17.2198C20.4701 17.4358 20.7419 17.8261 20.7419 18.3906C20.7419 18.7181 20.6234 19.0038 20.3865 19.2477C20.1495 19.4916 19.8499 19.6206 19.4875 19.6345H16.5606L14.7313 18.9341L14.3863 19.9167L16.5606 20.6798H23.8778ZM19.6965 6.28574C20.4352 5.42858 21.376 5 22.5189 5C23.4667 5 24.2681 5.34844 24.9231 6.04532C25.5782 6.7422 25.9267 7.54361 25.9685 8.44956C25.9685 9.16735 25.62 10.0245 24.9231 11.021C24.2263 12.0176 23.5398 12.8504 22.8639 13.5194C22.1879 14.1884 21.1321 15.1814 19.6965 16.4985C18.247 15.1814 17.1808 14.1884 16.4979 13.5194C15.8149 12.8504 15.1285 12.0176 14.4386 11.021C13.7487 10.0245 13.4107 9.16735 13.4246 8.44956C13.4246 7.5018 13.7626 6.70039 14.4386 6.04532C15.1145 5.39025 15.9299 5.04181 16.8846 5C17.9996 5 18.9369 5.42858 19.6965 6.28574ZM4 14.4079H8.19801V25.9064H4V14.4079Z" fill="#29CC39"/>
</svg>
