<svg width="24" height="24" viewBox="0 0 24 24" fill="none" xmlns="http://www.w3.org/2000/svg">
<path d="M10.9539 19.5863L10.953 19.5855C8.36625 17.2398 6.26744 15.3329 4.80831 13.5478C3.35578 11.7707 2.6 10.1877 2.6 8.5C2.6 5.74209 4.75066 3.6 7.5 3.6C9.05862 3.6 10.5645 4.32867 11.5447 5.47077L12 6.00126L12.4553 5.47077C13.4355 4.32867 14.9414 3.6 16.5 3.6C19.2493 3.6 21.4 5.74209 21.4 8.5C21.4 10.1877 20.6442 11.7707 19.1917 13.5478C17.7326 15.3329 15.6338 17.2398 13.047 19.5855L13.0461 19.5863L12 20.5386L10.9539 19.5863Z" stroke="#0C192D" stroke-width="1.2"/>
</svg>
