<svg width="20" height="20" viewBox="0 0 20 20" fill="none" xmlns="http://www.w3.org/2000/svg">
<path d="M17.262 5.99988C16.6337 4.91563 11.5637 2 10.3089 2C9.05415 2 3.98589 4.91576 3.35588 5.99988C2.92587 6.73984 2.9829 7.75819 3.0398 8.83325C3.06005 9.2142 3.0821 9.60798 3.0821 9.99992C3.0821 10.3937 3.06005 10.7856 3.0398 11.1666C2.98097 12.2436 2.92585 13.2618 3.35588 14.0018C3.98612 15.0842 9.05415 18 10.3089 18C11.5637 18 16.6336 15.0842 17.262 14.0001C17.692 13.2602 17.6369 12.2437 17.5761 11.1668C17.5559 10.7858 17.5338 10.3938 17.5338 10.0001C17.5338 9.60634 17.5559 9.2126 17.5761 8.83341C17.6369 7.75642 17.692 6.74 17.262 6.00004V5.99988Z" fill="#6EBA0C"/>
<path d="M13.1664 7.52145C13.3097 7.39893 13.5005 7.33119 13.6985 7.33254C13.8964 7.33388 14.086 7.4042 14.2273 7.52866C14.3686 7.65311 14.4505 7.82197 14.4557 7.99959C14.4609 8.17722 14.3891 8.34972 14.2553 8.48071L10.1946 13.0395C10.1248 13.107 10.0405 13.1611 9.94685 13.1988C9.85316 13.2364 9.75199 13.2566 9.64939 13.2583C9.54678 13.26 9.44484 13.2431 9.34967 13.2087C9.2545 13.1742 9.16805 13.1229 9.09549 13.0577L6.40261 10.6404C6.32761 10.5777 6.26746 10.502 6.22575 10.418C6.18403 10.3339 6.1616 10.2432 6.15979 10.1512C6.15798 10.0592 6.17683 9.96782 6.21522 9.8825C6.25361 9.79718 6.31075 9.71968 6.38323 9.65462C6.45571 9.58955 6.54205 9.53826 6.63709 9.5038C6.73213 9.46934 6.83394 9.45242 6.93642 9.45404C7.03891 9.45566 7.13998 9.4758 7.23361 9.51325C7.32724 9.5507 7.41151 9.60469 7.48139 9.67201L9.61249 11.5841L13.147 7.54155C13.1534 7.53452 13.1602 7.5278 13.1674 7.52145H13.1664Z" fill="#FCFCFC"/>
</svg>
