<svg width="36" height="37" viewBox="0 0 36 37" fill="none" xmlns="http://www.w3.org/2000/svg">
<path d="M34.5 6.46191V9.46191H30V13.9619H27V9.46191H22.5V6.46191H27V1.96191H30V6.46191H34.5ZM21.75 16.9619C22.3469 16.9617 22.9193 16.7244 23.3413 16.3022C23.7633 15.8799 24.0002 15.3073 24 14.7104C23.9998 14.1135 23.7625 13.5411 23.3402 13.1191C22.918 12.6972 22.3454 12.4602 21.7485 12.4604C21.4529 12.4605 21.1603 12.5188 20.8872 12.632C20.6142 12.7452 20.3661 12.9111 20.1572 13.1202C19.9483 13.3292 19.7826 13.5774 19.6695 13.8505C19.5565 14.1236 19.4984 14.4163 19.4985 14.7119C19.4986 15.0075 19.5569 15.3001 19.6701 15.5732C19.7833 15.8462 19.9492 16.0943 20.1583 16.3032C20.3673 16.5121 20.6155 16.6779 20.8886 16.7909C21.1617 16.9039 21.4544 16.962 21.75 16.9619ZM27 21.8129L26.2305 20.9579C25.9492 20.6446 25.605 20.3941 25.2205 20.2226C24.8359 20.0511 24.4196 19.9625 23.9985 19.9625C23.5774 19.9625 23.1611 20.0511 22.7765 20.2226C22.392 20.3941 22.0478 20.6446 21.7665 20.9579L20.7825 22.0544L13.5 13.9619L9 18.9614V9.46191H19.5V6.46191H9C8.20435 6.46191 7.44129 6.77798 6.87868 7.34059C6.31607 7.9032 6 8.66626 6 9.46191V27.4619C6 28.2576 6.31607 29.0206 6.87868 29.5832C7.44129 30.1458 8.20435 30.4619 9 30.4619H27C27.7956 30.4619 28.5587 30.1458 29.1213 29.5832C29.6839 29.0206 30 28.2576 30 27.4619V16.9619H27V21.8129Z" fill="#999999"/>
</svg>
