<svg width="36" height="36" viewBox="0 0 36 36" fill="none" xmlns="http://www.w3.org/2000/svg">
<g opacity="0.9" clip-path="url(#clip0_99_140)">
<path d="M30 3H14V8H16V5H30C30.6 5 31 5.4 31 6V17C31 17.6 30.6 18 30 18H17V25H11.7L8 27.9V25H5C4.4 25 4 24.6 4 24V13C4 12.4 4.4 12 5 12H18V10H5C3.3 10 2 11.3 2 13V24C2 25.7 3.3 27 5 27H6V32.1L12.3 27H19V20H30C31.7 20 33 18.7 33 17V6C33 4.3 31.7 3 30 3Z" fill="#173F5F"/>
<path d="M6.2002 22.9H8.6002L9.2002 21.3H12.3002L12.9002 22.9H15.3002L11.9002 14H9.5002L6.2002 22.9ZM10.7002 16.5L11.7002 19.6H9.7002L10.7002 16.5Z" fill="#173F5F"/>
<path d="M20 17C21.1 17 22.6 16.7 24 16C25.4 16.7 27 17 28 17V15C28 15 27 15 25.9 14.6C27.1 13.4 28 11.6 28 9V8H25V6H23V8H20V10H25.9C25.7 11.8 24.9 12.9 24 13.6C23.4 13.1 22.8 12.4 22.4 11.5H20.3C20.7 12.8 21.3 13.8 22.1 14.6C21.1 15 20.2 15 20 15V17Z" fill="#173F5F"/>
</g>
<defs>
<clipPath id="clip0_99_140">
<rect width="36" height="36" fill="white"/>
</clipPath>
</defs>
</svg>
