<svg width="30" height="30" viewBox="0 0 30 30" fill="none" xmlns="http://www.w3.org/2000/svg">
<path d="M15.9375 23.75C15.9375 23.5014 15.8387 23.2629 15.6629 23.0871C15.4871 22.9113 15.2486 22.8125 15 22.8125H7.5C7.41712 22.8125 7.33763 22.7796 7.27903 22.721C7.22042 22.6624 7.1875 22.5829 7.1875 22.5V7.5C7.1875 7.41712 7.22042 7.33763 7.27903 7.27903C7.33763 7.22042 7.41712 7.1875 7.5 7.1875H15C15.2486 7.1875 15.4871 7.08873 15.6629 6.91291C15.8387 6.7371 15.9375 6.49864 15.9375 6.25C15.9375 6.00136 15.8387 5.7629 15.6629 5.58709C15.4871 5.41127 15.2486 5.3125 15 5.3125H7.5C6.2925 5.3125 5.3125 6.2925 5.3125 7.5V22.5C5.3125 23.0802 5.54297 23.6366 5.9532 24.0468C6.36344 24.457 6.91984 24.6875 7.5 24.6875H15C15.2486 24.6875 15.4871 24.5887 15.6629 24.4129C15.8387 24.2371 15.9375 23.9986 15.9375 23.75Z" fill="#F5F5F5"/>
<path d="M10.4848 16.3938C10.4848 16.7253 10.6165 17.0432 10.8509 17.2777C11.0853 17.5121 11.4032 17.6438 11.7348 17.6438H17.8048C17.8335 18.0888 17.8698 18.5313 17.9123 18.9763L17.9498 19.3575C17.9637 19.5012 18.0122 19.6394 18.0909 19.7604C18.1697 19.8814 18.2765 19.9816 18.4022 20.0525C18.528 20.1234 18.669 20.1629 18.8132 20.1677C18.9575 20.1725 19.1008 20.1424 19.231 20.08C21.516 18.9849 23.5846 17.4863 25.3373 15.6563L25.3748 15.6175C25.5357 15.4497 25.6255 15.2262 25.6255 14.9938C25.6255 14.7613 25.5357 14.5378 25.3748 14.37L25.3373 14.3313C23.5846 12.5012 21.5161 11.0026 19.231 9.90752C19.1008 9.84512 18.9575 9.81504 18.8132 9.81983C18.669 9.82463 18.528 9.86416 18.4022 9.93507C18.2765 10.006 18.1697 10.1062 18.0909 10.2272C18.0122 10.3481 17.9637 10.4863 17.9498 10.63L17.9123 11.0113C17.8698 11.455 17.8335 11.8988 17.8048 12.3438H11.7348C11.4032 12.3438 11.0853 12.4755 10.8509 12.7099C10.6165 12.9443 10.4848 13.2622 10.4848 13.5938V16.3938Z" fill="#F5F5F5"/>
</svg>
