<svg width="28" height="28" viewBox="0 0 28 28" fill="none" xmlns="http://www.w3.org/2000/svg">
<g opacity="0.9" clip-path="url(#clip0_2105_2602)">
<path d="M23.3334 2.33398H10.889V6.22287H12.4446V3.88954H23.3334C23.8001 3.88954 24.1112 4.20065 24.1112 4.66732V13.2229C24.1112 13.6895 23.8001 14.0007 23.3334 14.0007H13.2223V19.4451H9.10011L6.22233 21.7006V19.4451H3.889C3.42233 19.4451 3.11122 19.134 3.11122 18.6673V10.1118C3.11122 9.6451 3.42233 9.33398 3.889 9.33398H14.0001V7.77843H3.889C2.56678 7.77843 1.55566 8.78954 1.55566 10.1118V18.6673C1.55566 19.9895 2.56678 21.0006 3.889 21.0006H4.66678V24.9673L9.56678 21.0006H14.7779V15.5562H23.3334C24.6557 15.5562 25.6668 14.5451 25.6668 13.2229V4.66732C25.6668 3.3451 24.6557 2.33398 23.3334 2.33398Z" fill="#FCFCFC"/>
<path d="M4.82227 17.8109H6.68893L7.1556 16.5664H9.56671L10.0334 17.8109H11.9L9.2556 10.8887H7.38893L4.82227 17.8109ZM8.32227 12.8331L9.10004 15.2442H7.54449L8.32227 12.8331Z" fill="#FCFCFC"/>
<path d="M15.5557 13.2216C16.4112 13.2216 17.5779 12.9882 18.6668 12.4438C19.7557 12.9882 21.0001 13.2216 21.7779 13.2216V11.666C21.7779 11.666 21.0001 11.666 20.1446 11.3549C21.0779 10.4216 21.7779 9.02157 21.7779 6.99935V6.22157H19.4446V4.66602H17.889V6.22157H15.5557V7.77713H20.1446C19.989 9.17713 19.3668 10.0327 18.6668 10.5771C18.2001 10.1882 17.7334 9.64379 17.4223 8.94379H15.789C16.1001 9.9549 16.5668 10.7327 17.189 11.3549C16.4112 11.666 15.7112 11.666 15.5557 11.666V13.2216Z" fill="#FCFCFC"/>
</g>
<defs>
<clipPath id="clip0_2105_2602">
<rect width="28" height="28" fill="white"/>
</clipPath>
</defs>
</svg>
