<svg width="39" height="38" viewBox="0 0 39 38" fill="none" xmlns="http://www.w3.org/2000/svg">
<path fill-rule="evenodd" clip-rule="evenodd" d="M39 18.593C39 28.8617 30.2696 37.186 19.5 37.186C8.73045 37.186 0 28.8617 0 18.593C0 8.32438 8.73045 0 19.5 0C30.2696 0 39 8.32438 39 18.593ZM19.5 7.90203C20.3077 7.90203 20.9625 8.52636 20.9625 9.29651V20.4523C20.9625 21.2225 20.3077 21.8468 19.5 21.8468C18.6923 21.8468 18.0375 21.2225 18.0375 20.4523V9.29651C18.0375 8.52636 18.6923 7.90203 19.5 7.90203ZM19.5 27.8895C20.577 27.8895 21.45 27.0571 21.45 26.0302C21.45 25.0034 20.577 24.1709 19.5 24.1709C18.423 24.1709 17.55 25.0034 17.55 26.0302C17.55 27.0571 18.423 27.8895 19.5 27.8895Z" fill="url(#paint0_linear_2710_3239)"/>
<defs>
<linearGradient id="paint0_linear_2710_3239" x1="19.5" y1="0" x2="19.5" y2="37.186" gradientUnits="userSpaceOnUse">
<stop stop-color="#FCD434"/>
<stop offset="1" stop-color="#FCAC34"/>
</linearGradient>
</defs>
</svg>
