<svg width="30" height="30" viewBox="0 0 30 30" fill="none" xmlns="http://www.w3.org/2000/svg">
<path d="M24 9.50001C24 11.43 22.43 13 20.5 13C18.57 13 17 11.43 17 9.50001C17 7.57001 18.57 6.00001 20.5 6.00001C22.43 6.00001 24 7.57001 24 9.50001ZM22 14.79C21.5 14.92 21 15 20.5 15C19.0421 14.9974 17.6447 14.4171 16.6138 13.3862C15.583 12.3553 15.0026 10.9579 15 9.50001C15 8.03001 15.58 6.70001 16.5 5.71001C16.3185 5.48755 16.0897 5.30838 15.8302 5.18555C15.5707 5.06272 15.2871 4.99934 15 5.00001C13.9 5.00001 13 5.90001 13 7.00001V7.29001C10.03 8.17001 8 10.9 8 14V20L6 22V23H24V22L22 20V14.79ZM15 26C16.11 26 17 25.11 17 24H13C13 24.5304 13.2107 25.0391 13.5858 25.4142C13.9609 25.7893 14.4696 26 15 26Z" fill="#FFBD24"/>
</svg>
