<svg width="30" height="30" viewBox="0 0 30 30" fill="none" xmlns="http://www.w3.org/2000/svg">
<path d="M19.5 17.82L21.94 19.23L21.19 20.53L18 18.69V15H19.5V17.82ZM26 18C26 21.87 22.87 25 19 25C15.13 25 12 21.87 12 18C12 17.66 12.03 17.33 12.08 17H4V5H22V11.68C24.36 12.81 26 15.21 26 18ZM12.68 15C12.86 14.64 13.05 14.3 13.28 13.97C13.19 14 13.1 14 13 14C11.34 14 10 12.66 10 11C10 9.34 11.34 8 13 8C14.66 8 16 9.34 16 11C16 11.25 15.96 11.5 15.9 11.73C16.84 11.27 17.89 11 19 11C19.34 11 19.67 11.03 20 11.08V9C19.4696 9 18.9609 8.78929 18.5858 8.41421C18.2107 8.03914 18 7.53043 18 7H8C8 8.11 7.11 9 6 9V13C6.53043 13 7.03914 13.2107 7.41421 13.5858C7.78929 13.9609 8 14.4696 8 15H12.68ZM24 18C24 15.24 21.76 13 19 13C16.24 13 14 15.24 14 18C14 20.76 16.24 23 19 23C21.76 23 24 20.76 24 18Z" fill="#6645E9"/>
</svg>
