<svg width="18" height="17" viewBox="0 0 18 17" fill="none" xmlns="http://www.w3.org/2000/svg">
<path d="M3.83606 6.4326e-06C3.81054 -0.000225434 3.78536 0.00581439 3.7628 0.0175818C3.74023 0.0293492 3.72099 0.0464744 3.7068 0.0674143C3.6926 0.0883541 3.68391 0.112451 3.6815 0.137533C3.6791 0.162615 3.68305 0.187894 3.693 0.211093L3.78145 0.417245L5.34663 4.02015C5.35727 4.04465 5.37425 4.06596 5.39588 4.08193C5.4175 4.0979 5.443 4.10797 5.46982 4.11113C5.49663 4.11428 5.52382 4.11041 5.54864 4.09991C5.57346 4.0894 5.59504 4.07263 5.61121 4.05128L8.50006 0.242984C8.51721 0.220422 8.52764 0.193594 8.53021 0.165506C8.53277 0.137417 8.52737 0.109178 8.51459 0.0839533C8.50181 0.0587282 8.48218 0.0375137 8.45788 0.0226868C8.43357 0.00785988 8.40557 6.4326e-06 8.377 6.4326e-06H3.83606ZM15.3042 0.989382L13.7167 4.6481C13.7067 4.67119 13.7027 4.69638 13.705 4.72139C13.7073 4.7464 13.7158 4.77046 13.7298 4.79141C13.7438 4.81237 13.7629 4.82956 13.7853 4.84145C13.8077 4.85335 13.8328 4.85957 13.8582 4.85956H17.7423C17.7697 4.85957 17.7967 4.85235 17.8203 4.83863C17.844 4.82491 17.8635 4.8052 17.8768 4.78154C17.8901 4.75788 17.8968 4.73113 17.8962 4.70407C17.8955 4.677 17.8875 4.6506 17.8731 4.62759L15.5761 0.96926C15.5612 0.945707 15.5401 0.926617 15.5151 0.914061C15.49 0.901505 15.462 0.895963 15.4339 0.898037C15.4059 0.90011 15.379 0.90972 15.3561 0.925823C15.3333 0.941926 15.3153 0.963908 15.3042 0.989382ZM2.42394 0.970779L0.1277 4.62759C0.113232 4.6506 0.105258 4.677 0.104601 4.70407C0.103945 4.73113 0.110631 4.75788 0.123967 4.78154C0.137303 4.8052 0.156804 4.82491 0.180449 4.83863C0.204095 4.85235 0.231026 4.85957 0.258452 4.85956H4.14256C4.16801 4.85953 4.19306 4.85327 4.21546 4.84133C4.23786 4.82939 4.25691 4.81215 4.2709 4.79115C4.28488 4.77015 4.29338 4.74606 4.29561 4.72102C4.29784 4.69599 4.29375 4.6708 4.28369 4.64772L2.69313 0.9909C2.68176 0.96606 2.66382 0.944701 2.6412 0.929064C2.61858 0.913427 2.59211 0.90409 2.56458 0.902032C2.53704 0.899974 2.50946 0.90527 2.48471 0.917367C2.45996 0.929463 2.43897 0.947912 2.42394 0.970779ZM14.2789 6.4326e-06H9.45456C9.44063 -8.24641e-05 9.42697 0.00367544 9.4151 0.0108552C9.40323 0.018035 9.39363 0.0283502 9.38739 0.0406345C9.38114 0.0529187 9.37851 0.0666819 9.37978 0.0803678C9.38105 0.0940537 9.38617 0.107116 9.39456 0.118078L12.468 4.15986C12.4759 4.17024 12.4863 4.1784 12.4984 4.18351C12.5104 4.18862 12.5237 4.1905 12.5367 4.18895C12.5497 4.18741 12.5621 4.18251 12.5726 4.17474C12.5831 4.16696 12.5913 4.15659 12.5965 4.14468L14.2147 0.417625L14.3455 0.100994C14.3501 0.0901259 14.3519 0.078317 14.3509 0.0665789C14.3499 0.0548408 14.346 0.0435232 14.3396 0.0335956C14.3331 0.0236681 14.3244 0.0154264 14.314 0.00957654C14.3036 0.00372663 14.292 0.00044282 14.2801 6.4326e-06H14.2789ZM8.34624 15.7936L4.90707 6.16974C4.89698 6.1418 4.87835 6.11763 4.85377 6.10056C4.82918 6.0835 4.79984 6.07437 4.76978 6.07445H0.143467C0.116667 6.07438 0.0903851 6.08173 0.067615 6.09569C0.0448449 6.10964 0.0265026 6.12962 0.014678 6.15337C0.00285348 6.17711 -0.00197778 6.20365 0.000734733 6.22998C0.00344724 6.2563 0.0135944 6.28134 0.0300201 6.30224L8.33662 16.9253C8.36475 16.9613 8.40486 16.9862 8.44985 16.9957C8.49483 17.0053 8.54178 16.9987 8.58236 16.9773C8.62318 16.9561 8.65491 16.9211 8.67178 16.8788C8.68865 16.8364 8.68954 16.7895 8.67427 16.7465L8.34624 15.7936ZM17.8565 6.07445H13.2302C13.2003 6.07444 13.1712 6.08361 13.1468 6.10068C13.1224 6.11775 13.104 6.14189 13.0941 6.16974L9.31765 16.7302C9.30179 16.7745 9.30245 16.823 9.3195 16.8669C9.33655 16.9108 9.36889 16.9472 9.41071 16.9697C9.45255 16.9921 9.50107 16.9991 9.54762 16.9894C9.59418 16.9797 9.63575 16.9541 9.66491 16.917L17.97 6.30224C17.9864 6.28134 17.9966 6.2563 17.9993 6.22998C18.002 6.20365 17.9971 6.17711 17.9853 6.15337C17.9735 6.12962 17.9552 6.10964 17.9324 6.09569C17.9096 6.08173 17.8833 6.07438 17.8565 6.07445ZM9.12306 1.78172L11.2766 4.61658C11.2938 4.63915 11.3042 4.66597 11.3068 4.69406C11.3093 4.72215 11.3039 4.75039 11.2912 4.77561C11.2784 4.80084 11.2587 4.82205 11.2344 4.83688C11.2101 4.85171 11.1821 4.85956 11.1536 4.85956H6.84644C6.81787 4.85956 6.78987 4.85171 6.76556 4.83688C6.74126 4.82205 6.72162 4.80084 6.70885 4.77561C6.69607 4.75039 6.69067 4.72215 6.69323 4.69406C6.6958 4.66597 6.70623 4.63915 6.72337 4.61658L8.87694 1.78172C8.89127 1.76286 8.90985 1.74755 8.93121 1.737C8.95257 1.72646 8.97612 1.72097 9 1.72097C9.02388 1.72097 9.04743 1.72646 9.06879 1.737C9.09015 1.74755 9.10873 1.76286 9.12306 1.78172ZM8.85386 13.5627L6.25036 6.27681C6.24218 6.25391 6.23969 6.22941 6.24308 6.20537C6.24647 6.18133 6.25565 6.15844 6.26985 6.13862C6.28405 6.1188 6.30285 6.10263 6.32469 6.09146C6.34652 6.0803 6.37075 6.07447 6.39534 6.07445H11.6047C11.6292 6.07447 11.6535 6.0803 11.6753 6.09146C11.6971 6.10263 11.716 6.1188 11.7302 6.13862C11.7444 6.15844 11.7535 6.18133 11.7569 6.20537C11.7603 6.22941 11.7578 6.25391 11.7496 6.27681L9.14498 13.5627C9.13436 13.5923 9.11471 13.6179 9.08875 13.636C9.06279 13.6541 9.03179 13.6638 9 13.6638C8.96821 13.6638 8.93721 13.6541 8.91125 13.636C8.88528 13.6179 8.86564 13.5923 8.85502 13.5627H8.85386Z" fill="#049CE5"/>
</svg>
