<svg width="24" height="24" viewBox="0 0 24 24" fill="none" xmlns="http://www.w3.org/2000/svg">
<circle cx="12" cy="12" r="12" fill="#005599"/>
<path d="M11.9995 12.6341C13.519 12.6341 14.9009 13.0742 15.9175 13.6938C16.4248 14.0046 16.8586 14.3692 17.1719 14.7656C17.4801 15.1562 17.7071 15.623 17.7071 16.1221C17.7071 16.6579 17.4465 17.0803 17.071 17.3815C16.7159 17.6669 16.2472 17.8559 15.7494 17.9878C14.7487 18.2522 13.4131 18.3417 11.9995 18.3417C10.586 18.3417 9.25041 18.2529 8.24968 17.9878C7.75186 17.8559 7.2832 17.6669 6.92807 17.3815C6.552 17.0797 6.29199 16.6579 6.29199 16.1221C6.29199 15.623 6.51903 15.1562 6.82723 14.7656C7.14052 14.3692 7.57366 14.0046 8.08163 13.6938C9.09821 13.0742 10.4807 12.6341 11.9995 12.6341ZM11.9995 5.6582C12.8405 5.6582 13.647 5.99228 14.2417 6.58693C14.8363 7.18158 15.1704 7.9881 15.1704 8.82907C15.1704 9.67003 14.8363 10.4766 14.2417 11.0712C13.647 11.6659 12.8405 11.9999 11.9995 11.9999C11.1586 11.9999 10.3521 11.6659 9.75741 11.0712C9.16276 10.4766 8.82868 9.67003 8.82868 8.82907C8.82868 7.9881 9.16276 7.18158 9.75741 6.58693C10.3521 5.99228 11.1586 5.6582 11.9995 5.6582Z" fill="#FCFCFC"/>
</svg>
