<svg width="30" height="30" viewBox="0 0 30 30" fill="none" xmlns="http://www.w3.org/2000/svg">
<path d="M12.0664 12.4339H14.2664L13.1664 10.6006L12.0664 12.4339Z" fill="#33BFFF"/>
<path d="M12.4334 23.0664V23.7997C12.4334 25.0148 11.4485 25.9998 10.2334 25.9998H24.5334C25.3433 25.9998 26.0001 25.343 26.0001 24.5331V23.0664H12.4334Z" fill="#33BFFF"/>
<path d="M11.7 23.8V22.3333H22.7V15.6704L19.3373 19.0335H16.8333L14.2667 21.6002L13.7926 21.1261L23.6926 11.2261L24.1667 11.7001L17.5667 18.3001H19.0333L22.6894 14.6441C24.3394 12.9941 25.2667 10.7556 25.2667 8.42164V6.20001L16.1 15.3667V17.7816L15.3667 18.515V15.0632L22.7 7.72987V6.20001C22.7 4.98493 21.7151 4 20.5 4H6.56667L6.38187 4.00917C5.03257 4.10264 4 5.20886 4 6.60744C4 7.79796 4.98673 8.76667 6.2 8.76667C7.21095 8.76667 8.03333 7.95887 8.03333 6.96589C8.03333 6.1314 7.34258 5.45191 6.49333 5.45191C5.77358 5.45191 5.18808 6.02794 5.18808 6.73638H5.92142C5.92142 6.43241 6.17808 6.18525 6.49333 6.18525C6.93807 6.18525 7.3 6.53538 7.3 6.96589C7.3 7.55453 6.80649 8.03334 6.2 8.03334C5.3912 8.03334 4.73333 7.39379 4.73333 6.60744C4.73333 5.53886 5.52135 4.73333 6.56667 4.73333H7.99553C8.47124 5.19902 8.76667 5.84758 8.76667 6.56667V23.8001C8.76667 24.61 9.4234 25.2667 10.2333 25.2667C11.0433 25.2667 11.7 24.61 11.7 23.8001L11.7 23.8ZM9.86667 12.4333H10.6V10.9666L12.7388 9.13327L10.6 7.29993V5.83326H9.86667V5.09992H16.4667V5.83326H15.7333V7.29993L13.5946 9.13327L15.7333 10.9666V12.4333H16.4667V13.1666H9.86667V12.4333Z" fill="#33BFFF"/>
</svg>
