<svg width="24" height="24" viewBox="0 0 24 24" fill="none" xmlns="http://www.w3.org/2000/svg">
<path d="M15.8027 3.41907C15.7138 3.33569 15.6024 3.28013 15.4823 3.25924C15.3622 3.23836 15.2386 3.25305 15.1268 3.30151C15.0149 3.34998 14.9197 3.4301 14.8528 3.53201C14.7859 3.63392 14.7502 3.75317 14.7502 3.87507V6.61107C14.5712 6.61507 14.3627 6.62607 14.1302 6.64707C13.3627 6.71807 12.3222 6.91007 11.2422 7.39957C9.04124 8.39707 6.77924 10.5866 6.25424 15.1796C6.23995 15.3053 6.26415 15.4324 6.32366 15.5441C6.38317 15.6558 6.47518 15.7468 6.58752 15.805C6.69986 15.8633 6.82724 15.8861 6.9528 15.8704C7.07837 15.8547 7.19621 15.8012 7.29074 15.7171C9.45824 13.7901 11.4892 12.9606 12.9587 12.6076C13.53 12.4671 14.1139 12.3838 14.7017 12.3591L14.7502 12.3576V15.1251C14.7502 15.247 14.7859 15.3662 14.8528 15.4681C14.9197 15.5701 15.0149 15.6502 15.1268 15.6986C15.2386 15.7471 15.3622 15.7618 15.4823 15.7409C15.6024 15.72 15.7138 15.6645 15.8027 15.5811L21.8027 9.95607C21.8651 9.89762 21.9148 9.82699 21.9488 9.74856C21.9828 9.67012 22.0003 9.58555 22.0003 9.50007C22.0003 9.4146 21.9828 9.33003 21.9488 9.25159C21.9148 9.17316 21.8651 9.10253 21.8027 9.04407L15.8027 3.41907ZM15.3032 7.87107L15.3132 7.87207H15.3142C15.4011 7.88066 15.4883 7.87097 15.5711 7.84362C15.654 7.81627 15.7302 7.77186 15.7949 7.71327C15.8596 7.65468 15.9112 7.58319 15.9466 7.50342C15.982 7.42364 16.0002 7.33734 16.0002 7.25007V5.31757L20.4612 9.50007L16.0002 13.6826V11.7501C16.0002 11.4351 15.7732 11.1701 15.4527 11.1301H15.4512L15.4492 11.1296L15.4442 11.1291L15.4302 11.1276C15.362 11.1209 15.2937 11.1159 15.2252 11.1126C15.0364 11.1036 14.8472 11.1026 14.6582 11.1096C14.1752 11.1266 13.4932 11.1946 12.6667 11.3926C11.3267 11.7141 9.61724 12.3781 7.77774 13.7191C8.52074 10.6791 10.2092 9.24007 11.7577 8.53807C12.6782 8.12107 13.5752 7.95407 14.2452 7.89207C14.5792 7.86107 14.8532 7.85707 15.0407 7.86007C15.1283 7.8614 15.2159 7.86507 15.3032 7.87107ZM6.12524 4.00007C5.29644 4.00007 4.50159 4.32931 3.91554 4.91537C3.32948 5.50142 3.00024 6.29627 3.00024 7.12507V17.8751C3.00024 18.7039 3.32948 19.4987 3.91554 20.0848C4.50159 20.6708 5.29644 21.0001 6.12524 21.0001H16.8752C17.704 21.0001 18.4989 20.6708 19.085 20.0848C19.671 19.4987 20.0002 18.7039 20.0002 17.8751V16.7501C20.0002 16.5843 19.9344 16.4253 19.8172 16.3081C19.7 16.1909 19.541 16.1251 19.3752 16.1251C19.2095 16.1251 19.0505 16.1909 18.9333 16.3081C18.8161 16.4253 18.7502 16.5843 18.7502 16.7501V17.8751C18.7502 18.3724 18.5527 18.8493 18.2011 19.2009C17.8494 19.5525 17.3725 19.7501 16.8752 19.7501H6.12524C5.62796 19.7501 5.15105 19.5525 4.79942 19.2009C4.44779 18.8493 4.25024 18.3724 4.25024 17.8751V7.12507C4.25024 6.62779 4.44779 6.15088 4.79942 5.79925C5.15105 5.44762 5.62796 5.25007 6.12524 5.25007H10.2502C10.416 5.25007 10.575 5.18423 10.6922 5.06702C10.8094 4.94981 10.8752 4.79083 10.8752 4.62507C10.8752 4.45931 10.8094 4.30034 10.6922 4.18313C10.575 4.06592 10.416 4.00007 10.2502 4.00007H6.12524Z" fill="black"/>
</svg>
