<svg width="23" height="24" viewBox="0 0 23 24" fill="none" xmlns="http://www.w3.org/2000/svg">
<path d="M21.5929 5.99982C20.6504 4.37344 13.0455 0 11.1633 0C9.28118 0 1.67878 4.37364 0.733772 5.99982C0.0887537 7.10976 0.174296 8.63728 0.259652 10.2499C0.29003 10.8213 0.323101 11.412 0.323101 11.9999C0.323101 12.5905 0.290031 13.1784 0.259652 13.7499C0.171402 15.3654 0.088729 16.8926 0.733772 18.0026C1.67913 19.6264 9.28118 24 11.1633 24C13.0455 24 20.6503 19.6264 21.5929 18.0002C22.2379 16.8902 22.1553 15.3656 22.0641 13.7501C22.0337 13.1787 22.0007 12.5907 22.0007 12.0001C22.0007 11.4095 22.0337 10.8189 22.0641 10.2501C22.1552 8.63463 22.2379 7.11 21.5929 6.00006V5.99982Z" fill="url(#paint0_linear_535_1027)"/>
<path d="M17.4826 11.8187L13.508 11.0238L15.7564 7.65117C15.8278 7.54413 15.8137 7.40155 15.7227 7.31054C15.6317 7.21954 15.4891 7.20544 15.3821 7.27679L12.0094 9.5251L11.2145 5.55046C11.1893 5.42438 11.0785 5.3335 10.9498 5.3335C10.8211 5.3335 10.7103 5.42438 10.6851 5.55046L9.89018 9.5251L6.51754 7.27679C6.40641 7.20267 6.25767 7.22099 6.16788 7.32006C6.07808 7.41902 6.07422 7.56885 6.15884 7.67226L8.82939 10.9363L4.41689 11.8187C4.28587 11.8449 4.19366 11.9631 4.20029 12.0967C4.2068 12.2301 4.30997 12.3388 4.44304 12.3521L8.72872 12.7806L6.14568 16.5118C6.07143 16.619 6.08445 16.7642 6.17678 16.8564C6.26899 16.9487 6.41411 16.9617 6.52139 16.8875L9.94031 14.5204L10.6841 18.6117C10.7075 18.7401 10.8192 18.8335 10.9498 18.8335C11.0803 18.8335 11.192 18.7401 11.2154 18.6117L12.0272 14.1471L15.361 16.8747C15.4644 16.9595 15.6143 16.9556 15.7134 16.8657C15.8124 16.7759 15.8308 16.6272 15.7566 16.5159L13.2605 12.7718L17.4567 12.3522C17.5898 12.3389 17.6929 12.2302 17.6994 12.0968C17.706 11.9632 17.6137 11.8449 17.4826 11.8187Z" fill="#FCFCFC"/>
<defs>
<linearGradient id="paint0_linear_535_1027" x1="11.1629" y1="0" x2="11.1629" y2="24" gradientUnits="userSpaceOnUse">
<stop stop-color="#FCD434"/>
<stop offset="1" stop-color="#FCAC34"/>
</linearGradient>
</defs>
</svg>
