<svg width="20" height="20" viewBox="0 0 20 20" fill="none" xmlns="http://www.w3.org/2000/svg">
<path d="M12.6712 3.42677C13.008 3.08871 13.3818 2.80847 13.8594 2.73237C13.9612 2.71615 14.0638 2.70801 14.1666 2.70801C14.2694 2.70801 14.3721 2.71615 14.4739 2.73237C14.9515 2.80847 15.3253 3.08871 15.662 3.42677C15.9902 3.7562 16.3568 4.21863 16.8011 4.77902L17.9897 6.27803C18.2042 6.54851 18.1587 6.94162 17.8883 7.15608C17.6178 7.37054 17.2247 7.32512 17.0102 7.05465L15.8454 5.58551C15.3802 4.99882 15.0605 4.59715 14.7916 4.32427L14.7916 14.9997C14.7916 15.3449 14.5118 15.6247 14.1666 15.6247C13.8215 15.6247 13.5416 15.3449 13.5416 14.9997L13.5416 4.32427C13.2727 4.59715 12.9531 4.99882 12.4879 5.58551L11.323 7.05465C11.1086 7.32512 10.7155 7.37053 10.445 7.15608C10.1745 6.94162 10.1291 6.54851 10.3436 6.27803L11.5321 4.77902C11.9764 4.21862 12.3431 3.7562 12.6712 3.42677Z" fill="#333333"/>
<path d="M6.4583 4.16634C6.4583 3.82116 6.17847 3.54134 5.8333 3.54134C5.48812 3.54134 5.2083 3.82116 5.2083 4.16634L5.2083 14.8417C4.93941 14.5689 4.61975 14.1672 4.15457 13.5805L2.9897 12.1114C2.77524 11.8409 2.38213 11.7955 2.11166 12.0099C1.84118 12.2244 1.79577 12.6175 2.01023 12.888L3.19877 14.387C3.64309 14.9474 4.00973 15.4098 4.33789 15.7392C4.67465 16.0773 5.04843 16.3575 5.52607 16.4336C5.62783 16.4499 5.73047 16.458 5.8333 16.458C5.93612 16.458 6.03877 16.4499 6.14052 16.4336C6.61817 16.3575 6.99194 16.0773 7.3287 15.7392C7.65687 15.4098 8.02351 14.9474 8.46782 14.387L9.65637 12.888C9.87082 12.6175 9.82541 12.2244 9.55494 12.0099C9.28446 11.7955 8.89135 11.8409 8.67689 12.1114L7.51202 13.5805C7.04684 14.1672 6.72718 14.5689 6.4583 14.8417L6.4583 4.16634Z" fill="#333333"/>
</svg>
