<svg width="20" height="23" viewBox="0 0 20 23" fill="none" xmlns="http://www.w3.org/2000/svg">
<path d="M4.83922 20.0509C4.83922 19.683 4.83922 19.315 4.83922 18.947C4.84176 18.932 4.84125 18.9165 4.83771 18.9017C4.83417 18.8869 4.82767 18.8729 4.81863 18.8608C4.80958 18.8486 4.79818 18.8384 4.78513 18.8309C4.77208 18.8234 4.75765 18.8187 4.74274 18.8171C3.84704 18.558 3.02032 18.0964 2.32418 17.4668C1.81697 16.9969 1.39466 16.4401 1.07648 15.8217C0.627991 14.9283 0.32952 13.9648 0.193433 12.9711C0.0248201 11.7246 -0.0337386 10.4652 0.0184592 9.20804C0.0299061 8.62194 0.0593408 8.0425 0.124751 7.4564C0.229069 6.34263 0.504993 5.25253 0.942384 4.22617C1.48248 2.96422 2.46229 1.95054 3.6929 1.38058C4.53119 0.989969 5.4131 0.704808 6.31914 0.531395C7.20765 0.360032 8.10725 0.254854 9.01078 0.216697C9.82523 0.187371 10.6406 0.199597 11.4539 0.253329C12.6178 0.303355 13.7713 0.499655 14.8879 0.837766C15.7159 1.08078 16.5035 1.44837 17.2247 1.92838C17.9275 2.4196 18.4958 3.08486 18.8763 3.86152C19.3237 4.76863 19.6277 5.74188 19.7774 6.74541C19.8746 7.34122 19.9385 7.94216 19.9687 8.54535C20.0112 9.29296 20.0063 10.0439 19.9785 10.7882C19.9507 11.5325 19.8886 12.2551 19.7986 12.9844C19.6849 14.079 19.3545 15.1388 18.8273 16.0997C18.141 17.3154 17.0417 18.2333 15.7366 18.6806C14.8442 18.9988 13.9228 19.2253 12.9861 19.3566C12.3009 19.4532 11.6141 19.5231 10.924 19.5514C10.3959 19.5764 9.86766 19.5697 9.33947 19.5614C9.04022 19.5614 8.7426 19.5314 8.44498 19.5048C8.41576 19.4992 8.38557 19.5025 8.35821 19.5144C8.33085 19.5262 8.30756 19.5461 8.29126 19.5714C7.68949 20.3074 7.06482 21.0233 6.43524 21.736C6.32056 21.866 6.18778 21.9782 6.04114 22.069C5.94488 22.1333 5.83512 22.1737 5.72072 22.1868C5.60632 22.1999 5.49049 22.1855 5.38258 22.1447C5.27467 22.1038 5.1777 22.0377 5.0995 21.9517C5.02131 21.8657 4.96408 21.7621 4.93243 21.6494C4.87011 21.4491 4.83921 21.2401 4.84086 21.03C4.83922 20.7003 4.83922 20.3756 4.83922 20.0509ZM5.56691 21.4479L5.64377 21.3747L7.00922 19.8312C7.53468 19.2373 8.0596 18.6429 8.58398 18.0479C8.60975 18.0116 8.64453 17.9829 8.68475 17.9648C8.72497 17.9466 8.7692 17.9397 8.81291 17.9446C8.99116 17.963 9.1694 17.9696 9.34928 17.9713C9.97068 17.9713 10.5921 17.9713 11.2135 17.9263C11.7777 17.8814 12.3402 17.8114 12.8994 17.7215C13.5016 17.6148 14.0977 17.4753 14.6852 17.3036C15.9934 16.9456 17.0056 16.1797 17.6417 14.9392C18.0173 14.1765 18.2528 13.3504 18.3367 12.5015C18.4361 11.7015 18.4956 10.8968 18.5149 10.0905C18.5439 9.07774 18.476 8.06449 18.3122 7.06511C18.1986 6.34104 17.9941 5.63483 17.7039 4.9638C17.3343 4.13126 16.811 3.44193 16.0048 2.99902C14.7686 2.31967 13.4309 2.01663 12.0524 1.86178C11.6615 1.81849 11.2707 1.79518 10.8783 1.78019C10.0747 1.73801 9.26934 1.74246 8.46624 1.79351C7.88867 1.83716 7.3142 1.91611 6.74594 2.02995C5.91024 2.18507 5.10179 2.46563 4.34701 2.86248C3.90943 3.08761 3.51245 3.38655 3.17289 3.74663C2.62256 4.37293 2.21889 5.11814 1.99222 5.9262C1.72333 6.86731 1.57655 7.84019 1.55561 8.82008C1.50299 9.79997 1.51501 10.7823 1.59158 11.7606C1.63922 12.3428 1.73495 12.9198 1.87776 13.4856C2.09022 14.3673 2.5024 15.1862 3.08131 15.8766C3.70631 16.5811 4.5141 17.0913 5.41156 17.3485C5.5244 17.3835 5.57509 17.4235 5.57509 17.5533C5.56528 18.0329 5.57509 18.5124 5.57509 18.992L5.56691 21.4479Z" fill="white"/>
<path d="M4.42209 6.5761C4.41064 6.21145 4.60524 5.9467 4.84072 5.7086C5.15129 5.40567 5.49346 5.13822 5.86112 4.91103C6.02878 4.80575 6.22812 4.76564 6.42251 4.79806C6.61689 4.83049 6.79324 4.93328 6.91914 5.08753C7.36399 5.56366 7.76215 6.08284 8.10798 6.6377C8.27923 6.8873 8.40854 7.16414 8.49063 7.45692C8.52344 7.57117 8.52557 7.69228 8.49681 7.80766C8.46805 7.92304 8.40945 8.02846 8.3271 8.11295C8.13845 8.30151 7.93739 8.47675 7.72533 8.63745C7.61847 8.72416 7.53902 8.84095 7.49686 8.97329C7.4547 9.10562 7.45169 9.24766 7.48821 9.38173C7.61918 10.0113 7.91595 10.5926 8.34673 11.0634C8.87017 11.7141 9.54459 12.2217 10.309 12.5404C10.4969 12.6387 10.7121 12.6687 10.919 12.6253C11.0323 12.5938 11.133 12.5268 11.2068 12.4338C11.3213 12.2856 11.4456 12.1424 11.5486 11.9842C11.6822 11.7869 11.8862 11.6505 12.1172 11.6042C12.3481 11.5579 12.5877 11.6052 12.7848 11.7361C13.3391 12.0636 13.8625 12.4426 14.3481 12.8684C14.4626 12.9683 14.582 13.0649 14.6965 13.1664C14.8319 13.2716 14.9297 13.4191 14.9749 13.5863C15.0201 13.7536 15.0102 13.9313 14.9467 14.0922C14.8456 14.3628 14.6984 14.6131 14.5117 14.8315C14.2797 15.1598 13.9842 15.4363 13.6433 15.644C13.4804 15.7415 13.2973 15.7987 13.1088 15.8111C12.9202 15.8235 12.7314 15.7908 12.5575 15.7156C11.2345 15.1733 9.99827 14.433 8.88963 13.5194C7.80529 12.6105 6.85766 11.5446 6.07698 10.3558C5.42008 9.37164 4.89747 8.30121 4.52348 7.17385C4.48365 7.0375 4.4509 6.89911 4.42536 6.75925C4.41809 6.69848 4.417 6.6371 4.42209 6.5761Z" fill="white"/>
<path d="M10.0693 4.80522C11.1762 4.82606 12.2409 5.24182 13.0776 5.98001C13.9144 6.7182 14.4701 7.732 14.648 8.84467C14.7196 9.2492 14.7579 9.65912 14.7625 10.0702C14.7625 10.1667 14.738 10.2367 14.6366 10.2466C14.5352 10.2566 14.509 10.1684 14.509 10.0801C14.5242 9.24873 14.3566 8.42439 14.0184 7.66746C13.7337 7.04551 13.3118 6.49884 12.7857 6.06998C12.2596 5.64112 11.6434 5.34164 10.985 5.19485C10.6369 5.11279 10.281 5.07035 9.92373 5.0683C9.88894 5.06891 9.85424 5.06442 9.82071 5.05498C9.79216 5.04678 9.76785 5.02762 9.7529 5.00153C9.73795 4.97544 9.73353 4.94446 9.74058 4.91511C9.74079 4.90119 9.74372 4.88746 9.7492 4.8747C9.75467 4.86195 9.76259 4.85043 9.77248 4.84082C9.78238 4.83121 9.79405 4.8237 9.80682 4.81874C9.81959 4.81377 9.83321 4.81144 9.84687 4.81188C9.92046 4.80189 9.99568 4.80522 10.0693 4.80522Z" fill="white"/>
<path d="M13.2245 9.31906C13.219 8.85648 13.1071 8.40165 12.8978 7.99105C12.6885 7.58044 12.3876 7.22549 12.0193 6.95467C11.5894 6.64719 11.0896 6.45636 10.5672 6.40021C10.4788 6.38855 10.3905 6.38355 10.3006 6.37356C10.2107 6.36357 10.1567 6.32528 10.1649 6.23203C10.1731 6.13879 10.2303 6.10549 10.3284 6.11215C11.7772 6.20206 13.0102 7.03626 13.3896 8.58977C13.459 8.88931 13.4936 9.19612 13.4926 9.50389C13.4926 9.53219 13.4926 9.5605 13.4926 9.58714C13.4926 9.67039 13.4403 9.72534 13.3602 9.72367C13.3424 9.72306 13.325 9.71877 13.3089 9.71106C13.2928 9.70335 13.2784 9.69238 13.2666 9.67883C13.2548 9.66527 13.2459 9.64941 13.2403 9.63221C13.2348 9.61502 13.2327 9.59685 13.2343 9.57881C13.2212 9.50056 13.2245 9.42063 13.2245 9.31906Z" fill="white"/>
<path d="M10.6854 7.46369C11.4801 7.51864 12.0345 7.91492 12.1866 8.77576C12.205 8.88604 12.2181 8.99718 12.2258 9.10877C12.2258 9.19869 12.2062 9.27528 12.1097 9.27528C12.0132 9.27528 11.9805 9.20868 11.9773 9.10877C11.9764 8.77879 11.8765 8.45696 11.6911 8.18633C11.4962 7.94121 11.2165 7.7815 10.9094 7.74009C10.8408 7.72702 10.7714 7.71812 10.7018 7.71345C10.5873 7.71345 10.5235 7.65517 10.5382 7.56526C10.5529 7.47534 10.6216 7.45869 10.6854 7.46369Z" fill="white"/>
</svg>
