<svg width="30" height="20" viewBox="0 0 30 20" fill="none" xmlns="http://www.w3.org/2000/svg">
<mask id="mask0_625_740" style="mask-type:alpha" maskUnits="userSpaceOnUse" x="0" y="0" width="30" height="20">
<rect width="29.0909" height="19.3939" rx="1" fill="#D9D9D9"/>
</mask>
<g mask="url(#mask0_625_740)">
<path d="M0 0H29.0909V21.8182H0V0Z" fill="#DE2910"/>
<path d="M3.48974 8.07255L5.45335 2.18164L7.41696 8.07255L2.18066 4.47255H8.72604L3.48974 8.07255Z" fill="#FFDE00"/>
<path d="M12.0065 2.29365L9.98568 2.74147L11.3336 1.17071L11.2014 3.28474L10.08 1.41319L12.0065 2.29365Z" fill="#FFDE00"/>
<path d="M14.046 4.88034L12.0097 4.50936L13.8613 3.58434L12.9196 5.48163L12.6118 3.32163L14.046 4.88034Z" fill="#FFDE00"/>
<path d="M13.7477 8.50638L12.0397 7.33713L14.1076 7.24775L12.4739 8.59596L13.0739 6.49824L13.7477 8.50638Z" fill="#FFDE00"/>
<path d="M11.1806 10.8734L10.0568 9.1352L11.9987 9.85144L9.97112 10.4641L11.3347 8.76083L11.1806 10.8734Z" fill="#FFDE00"/>
</g>
</svg>
