<svg width="500" height="500" viewBox="0 0 500 500" fill="none" xmlns="http://www.w3.org/2000/svg">
<path d="M500 382.4H0V382.65H500V382.4Z" fill="#173F5F"/>
<path d="M449.9 398.49H416.78V398.74H449.9V398.49Z" fill="#173F5F"/>
<path d="M331.22 401.21H322.53V401.46H331.22V401.21Z" fill="#173F5F"/>
<path d="M415.78 389.21H396.59V389.46H415.78V389.21Z" fill="#173F5F"/>
<path d="M95.65 390.89H52.46V391.14H95.65V390.89Z" fill="#173F5F"/>
<path d="M110.89 390.89H104.56V391.14H110.89V390.89Z" fill="#173F5F"/>
<path d="M225.15 395.11H131.47V395.36H225.15V395.11Z" fill="#173F5F"/>
<path d="M237 337.8H43.91C42.3973 337.797 40.9475 337.195 39.8788 336.124C38.8102 335.053 38.21 333.603 38.21 332.09V60.66C38.2231 59.156 38.8292 57.718 39.8964 56.6582C40.9637 55.5985 42.4059 55.0026 43.91 55H237C238.514 55 239.967 55.6016 241.038 56.6724C242.108 57.7433 242.71 59.1956 242.71 60.71V332.09C242.71 333.604 242.108 335.057 241.038 336.128C239.967 337.198 238.514 337.8 237 337.8ZM43.91 55.2C42.4636 55.2026 41.0774 55.7791 40.0556 56.8027C39.0338 57.8264 38.46 59.2136 38.46 60.66V332.09C38.46 333.536 39.0338 334.924 40.0556 335.947C41.0774 336.971 42.4636 337.547 43.91 337.55H237C238.447 337.547 239.834 336.971 240.858 335.948C241.881 334.924 242.457 333.537 242.46 332.09V60.66C242.457 59.2127 241.881 57.8255 240.858 56.8021C239.834 55.7787 238.447 55.2026 237 55.2H43.91Z" fill="#173F5F"/>
<path d="M453.31 337.8H260.21C258.696 337.797 257.246 337.195 256.175 336.125C255.105 335.054 254.503 333.604 254.5 332.09V60.66C254.516 59.1551 255.124 57.7171 256.193 56.6576C257.262 55.5981 258.705 55.0025 260.21 55H453.31C454.812 55.0052 456.252 55.6022 457.317 56.6617C458.382 57.7212 458.987 59.1578 459 60.66V332.09C459 333.601 458.401 335.05 457.335 336.121C456.268 337.191 454.821 337.795 453.31 337.8ZM260.21 55.2C258.763 55.2026 257.375 55.7787 256.352 56.8021C255.329 57.8255 254.753 59.2127 254.75 60.66V332.09C254.753 333.537 255.329 334.924 256.352 335.948C257.375 336.971 258.763 337.547 260.21 337.55H453.31C454.757 337.547 456.145 336.971 457.168 335.948C458.191 334.924 458.767 333.537 458.77 332.09V60.66C458.767 59.2127 458.191 57.8255 457.168 56.8021C456.145 55.7787 454.757 55.2026 453.31 55.2H260.21Z" fill="#173F5F"/>
<path d="M289.69 174.06L427.47 174.06V83.8296L289.69 83.8296V174.06Z" fill="#F5F5F5"/>
<path d="M285.48 174.06L425.5 174.06V83.8296L285.48 83.8296V174.06Z" fill="#F0F0F0"/>
<path d="M289.69 191.76L427.47 191.76V174.05L289.69 174.05V191.76Z" fill="#F5F5F5"/>
<path d="M278.49 191.76L418.51 191.76V174.05L278.49 174.05V191.76Z" fill="#F0F0F0"/>
<path d="M419.62 168.18V89.7197L291.37 89.7197V168.18H419.62Z" fill="#FAFAFA"/>
<path d="M390.7 168.17L374.32 89.7197H348.76L365.14 168.17H390.7Z" fill="white"/>
<path d="M416.9 162.32C416.956 162.32 417.011 162.309 417.063 162.287C417.114 162.265 417.161 162.234 417.2 162.193C417.239 162.153 417.27 162.106 417.291 162.054C417.311 162.002 417.321 161.946 417.32 161.89V93.55C417.32 93.4386 417.275 93.3318 417.197 93.253C417.118 93.1743 417.011 93.13 416.9 93.13C416.844 93.1286 416.789 93.1386 416.737 93.1592C416.686 93.1798 416.639 93.2107 416.6 93.25C416.56 93.2892 416.529 93.3361 416.509 93.3877C416.488 93.4393 416.478 93.4945 416.48 93.55V161.89C416.478 161.946 416.488 162.002 416.509 162.054C416.529 162.106 416.56 162.153 416.599 162.193C416.638 162.234 416.685 162.265 416.737 162.287C416.788 162.309 416.844 162.32 416.9 162.32Z" fill="#F0F0F0"/>
<path d="M359.65 168.17L343.27 89.7197H333.3L349.69 168.17H359.65Z" fill="white"/>
<path d="M292.12 168.18V89.7197H291.37V168.18H292.12Z" fill="#F5F5F5"/>
<path opacity="0.6" d="M284.1 98.59H421.88L422.42 92H284.64L284.1 98.59Z" fill="#173F5F"/>
<path opacity="0.6" d="M284.1 109.39H421.88L422.42 102.81H284.64L284.1 109.39Z" fill="#173F5F"/>
<path opacity="0.6" d="M284.1 120.19H421.88L422.42 113.61H284.64L284.1 120.19Z" fill="#173F5F"/>
<path opacity="0.6" d="M284.1 131H421.88L422.42 124.41H284.64L284.1 131Z" fill="#173F5F"/>
<path opacity="0.6" d="M284.1 141.8H421.88L422.42 135.21H284.64L284.1 141.8Z" fill="#173F5F"/>
<path opacity="0.6" d="M284.1 152.6H421.88L422.42 146.01H284.64L284.1 152.6Z" fill="#173F5F"/>
<path d="M407.69 316.78H378.8V322.48H407.69V316.78Z" fill="#F5F5F5"/>
<path d="M324.31 382.4H329.64V251.33H324.31V382.4Z" fill="#F5F5F5"/>
<path d="M305.83 322.48H378.79V316.78H305.83V322.48Z" fill="#F5F5F5"/>
<path d="M407.69 347.95H378.8V353.65H407.69V347.95Z" fill="#F5F5F5"/>
<path d="M305.83 353.64H378.79V347.94H305.83V353.64Z" fill="#F5F5F5"/>
<path d="M407.69 254.45H378.8V260.15H407.69V254.45Z" fill="#F5F5F5"/>
<path d="M305.83 260.14H378.79V254.44H305.83V260.14Z" fill="#F5F5F5"/>
<path d="M407.69 285.61H378.8V291.31H407.69V285.61Z" fill="#F5F5F5"/>
<path d="M305.83 291.31H378.79V285.61H305.83V291.31Z" fill="#F5F5F5"/>
<path d="M397.28 382.4H402.61V251.33H397.28V382.4Z" fill="#F5F5F5"/>
<path d="M373.46 382.4H378.79V251.33H373.46V382.4Z" fill="#F5F5F5"/>
<path d="M305.83 382.4H311.16V251.33H305.83V382.4Z" fill="#F5F5F5"/>
<path d="M65.38 382.4H119.96L119.96 276.51H65.38L65.38 382.4Z" fill="#F5F5F5"/>
<path d="M79.9501 382.4H65.3701V367.78H95.2301L79.9501 382.4Z" fill="#FAFAFA"/>
<path d="M214.18 382.4H268.76V276.51H214.18V382.4Z" fill="#F5F5F5"/>
<path d="M65.3802 377.36H226.91V276.5H65.3802V377.36Z" fill="#FAFAFA"/>
<path d="M212.33 382.4H226.9V367.78H197.05L212.33 382.4Z" fill="#FAFAFA"/>
<path d="M76.6796 339.33H215.6V314.09H76.6796V339.33Z" fill="#F0F0F0"/>
<path d="M76.6796 369.96H215.6V344.72H76.6796V369.96Z" fill="#F0F0F0"/>
<path d="M189.2 316.79H103.09C101.875 316.79 100.71 316.307 99.851 315.449C98.9921 314.59 98.5095 313.425 98.5095 312.21V311.9H193.77V312.21C193.77 313.423 193.288 314.586 192.432 315.445C191.575 316.304 190.412 316.787 189.2 316.79Z" fill="#FAFAFA"/>
<path d="M76.6796 308.69H215.6V283.45H76.6796V308.69Z" fill="#F0F0F0"/>
<path d="M189.2 286.15H103.09C101.875 286.15 100.71 285.668 99.851 284.809C98.9921 283.95 98.5095 282.785 98.5095 281.57V281.26H193.77V281.57C193.77 282.783 193.288 283.947 192.432 284.805C191.575 285.664 190.412 286.148 189.2 286.15Z" fill="#FAFAFA"/>
<path d="M189.2 347.43H103.09C101.875 347.43 100.71 346.947 99.851 346.088C98.9921 345.229 98.5095 344.064 98.5095 342.85V342.54H193.77V342.85C193.77 344.063 193.288 345.226 192.432 346.085C191.575 346.943 190.412 347.427 189.2 347.43Z" fill="#FAFAFA"/>
<path d="M74.0696 174.06L211.85 174.06V83.8296L74.0696 83.8296V174.06Z" fill="#F5F5F5"/>
<path d="M69.8696 174.06L209.89 174.06V83.8296L69.8696 83.8296V174.06Z" fill="#F0F0F0"/>
<path d="M74.0696 191.76L211.85 191.76V174.05L74.0696 174.05V191.76Z" fill="#F5F5F5"/>
<path d="M62.8599 191.76L202.88 191.76V174.05L62.8599 174.05V191.76Z" fill="#F0F0F0"/>
<path d="M204 168.18V89.7197L75.75 89.7197V168.18H204Z" fill="#FAFAFA"/>
<path d="M175.08 168.17L158.7 89.7197H133.14L149.52 168.17H175.08Z" fill="white"/>
<path d="M201.27 162.32C201.326 162.32 201.381 162.309 201.433 162.287C201.484 162.265 201.531 162.234 201.57 162.193C201.609 162.153 201.64 162.106 201.661 162.054C201.681 162.002 201.691 161.946 201.69 161.89V93.55C201.691 93.4945 201.681 93.4393 201.661 93.3877C201.64 93.3361 201.609 93.2892 201.57 93.25C201.53 93.2107 201.484 93.1798 201.432 93.1592C201.38 93.1386 201.325 93.1286 201.27 93.13C201.158 93.13 201.052 93.1743 200.973 93.253C200.894 93.3318 200.85 93.4386 200.85 93.55V161.89C200.848 161.946 200.858 162.002 200.879 162.054C200.899 162.106 200.93 162.153 200.969 162.193C201.008 162.234 201.055 162.265 201.107 162.287C201.158 162.309 201.214 162.32 201.27 162.32Z" fill="#F0F0F0"/>
<path d="M144.03 168.17L127.65 89.7197H117.68L134.06 168.17H144.03Z" fill="white"/>
<path d="M76.5 168.18V89.7197H75.75V168.18H76.5Z" fill="#F5F5F5"/>
<path opacity="0.6" d="M68.4697 98.59H206.25L206.79 92H69.0097L68.4697 98.59Z" fill="#173F5F"/>
<path opacity="0.6" d="M68.4697 102.31H206.25L206.79 95.7197H69.0097L68.4697 102.31Z" fill="#173F5F"/>
<path opacity="0.6" d="M68.4697 106.02H206.25L206.79 99.4404H69.0097L68.4697 106.02Z" fill="#173F5F"/>
<path opacity="0.6" d="M68.4697 109.74H206.25L206.79 103.15H69.0097L68.4697 109.74Z" fill="#173F5F"/>
<path opacity="0.6" d="M68.4697 113.45H206.25L206.79 106.87H69.0097L68.4697 113.45Z" fill="#173F5F"/>
<path opacity="0.6" d="M68.4697 117.17H206.25L206.79 110.58H69.0097L68.4697 117.17Z" fill="#173F5F"/>
<path d="M96.0203 273.27H100.78V220.18H96.0203V273.27Z" fill="#F5F5F5"/>
<path d="M96.6197 273.24H97.9697V220.15H96.6197V273.24Z" fill="#FAFAFA"/>
<path d="M98.5296 273.24H99.0596V220.15H98.5296V273.24Z" fill="#FAFAFA"/>
<path d="M116.03 276.51H80.7903C80.7903 275.332 81.2581 274.203 82.0907 273.37C82.9234 272.538 84.0527 272.07 85.2303 272.07H111.58C112.758 272.07 113.887 272.538 114.72 273.37C115.552 274.203 116.02 275.332 116.02 276.51H116.03Z" fill="#F0F0F0"/>
<path d="M89.84 253.14C90.2025 253.137 90.5494 252.992 90.8058 252.736C91.0622 252.479 91.2073 252.132 91.21 251.77V217C91.21 216.637 91.0656 216.288 90.8087 216.031C90.5518 215.774 90.2033 215.63 89.84 215.63C89.6592 215.629 89.48 215.663 89.3126 215.731C89.1452 215.8 88.993 215.9 88.8648 216.028C88.7365 216.155 88.6347 216.306 88.5652 216.473C88.4957 216.64 88.46 216.819 88.46 217V251.81C88.4729 252.167 88.624 252.505 88.8814 252.754C89.1388 253.002 89.4825 253.14 89.84 253.14Z" fill="#F0F0F0"/>
<path d="M77.0703 232.8H119.72L114.81 203H81.9803L77.0703 232.8Z" fill="#E0E0E0"/>
<path d="M250 427.56C357.083 427.56 443.89 422.492 443.89 416.24C443.89 409.988 357.083 404.92 250 404.92C142.918 404.92 56.1104 409.988 56.1104 416.24C56.1104 422.492 142.918 427.56 250 427.56Z" fill="#F5F5F5"/>
<path d="M104.119 202.359L103.121 202.431L104.45 220.873L105.447 220.801L104.119 202.359Z" fill="#005599"/>
<path d="M106.124 230.322L105.127 230.394L105.627 237.336L106.624 237.264L106.124 230.322Z" fill="#005599"/>
<path d="M337.71 315.16H123.55C121.166 315.117 118.882 314.193 117.139 312.566C115.396 310.939 114.317 308.725 114.11 306.35L103.59 160.22C103.492 159.093 103.631 157.958 103.999 156.888C104.366 155.818 104.954 154.837 105.723 154.008C106.493 153.179 107.428 152.52 108.468 152.074C109.507 151.629 110.629 151.406 111.76 151.42H325.92C328.302 151.462 330.585 152.385 332.327 154.009C334.07 155.634 335.15 157.846 335.36 160.22L345.88 306.35C345.978 307.477 345.838 308.612 345.471 309.683C345.104 310.753 344.516 311.735 343.747 312.565C342.977 313.394 342.043 314.054 341.003 314.501C339.963 314.948 338.842 315.172 337.71 315.16Z" fill="#005599"/>
<path d="M338.53 315.16H124.37C121.986 315.117 119.703 314.193 117.96 312.566C116.217 310.939 115.137 308.725 114.93 306.35L104.41 160.22C104.312 159.093 104.452 157.958 104.819 156.888C105.187 155.818 105.774 154.837 106.544 154.008C107.313 153.179 108.248 152.52 109.288 152.074C110.328 151.629 111.449 151.406 112.58 151.42H326.74C329.123 151.462 331.405 152.385 333.148 154.009C334.891 155.634 335.971 157.846 336.18 160.22L346.7 306.35C346.8 307.477 346.661 308.613 346.295 309.684C345.928 310.756 345.341 311.738 344.571 312.568C343.801 313.398 342.866 314.058 341.825 314.504C340.785 314.95 339.662 315.174 338.53 315.16Z" fill="#005599"/>
<path opacity="0.5" d="M338.53 315.16H124.37C121.986 315.117 119.703 314.193 117.96 312.566C116.217 310.939 115.137 308.725 114.93 306.35L104.41 160.22C104.312 159.093 104.452 157.958 104.819 156.888C105.187 155.818 105.774 154.837 106.544 154.008C107.313 153.179 108.248 152.52 109.288 152.074C110.328 151.629 111.449 151.406 112.58 151.42H326.74C329.123 151.462 331.405 152.385 333.148 154.009C334.891 155.634 335.971 157.846 336.18 160.22L346.7 306.35C346.8 307.477 346.661 308.613 346.295 309.684C345.928 310.756 345.341 311.738 344.571 312.568C343.801 313.398 342.866 314.058 341.825 314.504C340.785 314.95 339.662 315.174 338.53 315.16Z" fill="white"/>
<path d="M327.06 155.819H112.9H112.18C106.71 156.269 107.83 164.599 113.35 164.599H327.87C333.4 164.599 333.32 156.269 327.78 155.819H327.06Z" fill="#005599"/>
<path d="M118.48 160.22C118.501 160.478 118.467 160.737 118.382 160.981C118.297 161.225 118.161 161.449 117.984 161.637C117.807 161.826 117.592 161.975 117.354 162.075C117.115 162.176 116.858 162.225 116.6 162.22C116.056 162.212 115.535 162.004 115.136 161.634C114.737 161.265 114.489 160.761 114.44 160.22C114.419 159.963 114.452 159.704 114.537 159.461C114.621 159.218 114.756 158.995 114.932 158.806C115.108 158.618 115.322 158.468 115.559 158.368C115.796 158.267 116.052 158.216 116.31 158.22C116.855 158.225 117.379 158.433 117.78 158.802C118.181 159.172 118.43 159.677 118.48 160.22Z" fill="#FAFAFA"/>
<path d="M125.35 160.22C125.371 160.478 125.338 160.737 125.252 160.981C125.167 161.225 125.031 161.449 124.854 161.637C124.677 161.826 124.462 161.975 124.224 162.075C123.985 162.176 123.728 162.225 123.47 162.22C122.926 162.212 122.405 162.004 122.006 161.634C121.607 161.265 121.359 160.761 121.31 160.22C121.289 159.963 121.322 159.704 121.407 159.461C121.492 159.218 121.626 158.995 121.802 158.806C121.978 158.618 122.192 158.468 122.429 158.368C122.666 158.267 122.922 158.216 123.18 158.22C123.725 158.225 124.249 158.433 124.65 158.802C125.051 159.172 125.3 159.677 125.35 160.22Z" fill="#FAFAFA"/>
<path d="M132.21 160.219C132.231 160.476 132.198 160.735 132.113 160.978C132.028 161.221 131.893 161.444 131.717 161.633C131.541 161.821 131.328 161.971 131.091 162.072C130.853 162.172 130.598 162.223 130.34 162.219C129.796 162.214 129.273 162.006 128.874 161.636C128.474 161.266 128.227 160.761 128.18 160.219C128.157 159.962 128.189 159.703 128.273 159.459C128.358 159.214 128.492 158.991 128.669 158.802C128.845 158.613 129.059 158.464 129.297 158.364C129.535 158.263 129.792 158.214 130.05 158.219C130.593 158.227 131.115 158.435 131.514 158.805C131.912 159.174 132.161 159.678 132.21 160.219Z" fill="#FAFAFA"/>
<path d="M332.85 300.58H128C127.134 300.566 126.305 300.23 125.673 299.639C125.041 299.048 124.651 298.243 124.58 297.38L115.93 177.21C115.891 176.798 115.941 176.382 116.075 175.99C116.21 175.598 116.426 175.24 116.71 174.938C116.994 174.636 117.338 174.399 117.721 174.24C118.104 174.082 118.516 174.007 118.93 174.02H323.83C324.694 174.032 325.523 174.365 326.155 174.955C326.788 175.545 327.178 176.348 327.25 177.21L335.91 297.38C335.947 297.798 335.895 298.219 335.756 298.614C335.618 299.01 335.396 299.372 335.106 299.675C334.816 299.978 334.465 300.216 334.076 300.372C333.687 300.528 333.269 300.599 332.85 300.58Z" fill="white"/>
<path d="M246.53 254.799L243.19 208.479L233.09 202.399H205.28L209.06 254.799H246.53Z" fill="white"/>
<path d="M246.53 255.279H209.06C208.936 255.282 208.816 255.237 208.724 255.153C208.633 255.069 208.578 254.953 208.57 254.829L204.8 202.429C204.795 202.363 204.804 202.297 204.827 202.235C204.849 202.173 204.884 202.117 204.93 202.069C204.974 202.02 205.028 201.98 205.088 201.953C205.149 201.925 205.214 201.91 205.28 201.909H233.09C233.178 201.912 233.264 201.936 233.34 201.979L243.44 208.059C243.508 208.098 243.565 208.153 243.607 208.219C243.649 208.286 243.674 208.361 243.68 208.439L247 254.759C247.007 254.827 246.999 254.895 246.976 254.959C246.954 255.023 246.918 255.081 246.87 255.129C246.827 255.176 246.774 255.213 246.716 255.239C246.657 255.265 246.594 255.279 246.53 255.279ZM209.53 254.279H246L242.72 208.729L233 202.879H205.8L209.53 254.279Z" fill="#005599"/>
<path d="M243.19 208.479L233.09 202.399L236.8 210.459L243.19 208.479Z" fill="#173F5F"/>
<path d="M236.8 210.939C236.707 210.939 236.617 210.912 236.539 210.863C236.462 210.813 236.399 210.743 236.36 210.659L232.65 202.599C232.606 202.505 232.594 202.399 232.614 202.297C232.633 202.194 232.684 202.101 232.76 202.029C232.839 201.961 232.938 201.92 233.042 201.911C233.146 201.902 233.25 201.926 233.34 201.979L243.44 208.059C243.521 208.108 243.587 208.179 243.63 208.264C243.672 208.349 243.689 208.445 243.68 208.539C243.667 208.631 243.628 208.718 243.568 208.789C243.508 208.859 243.429 208.912 243.34 208.939L236.94 210.939H236.8ZM234.19 203.619L237.06 209.869L242.06 208.339L234.19 203.619Z" fill="#005599"/>
<path d="M221 225.999C221.015 226.271 220.974 226.543 220.88 226.798C220.787 227.054 220.642 227.287 220.454 227.485C220.267 227.683 220.042 227.84 219.792 227.947C219.541 228.054 219.272 228.11 219 228.109C218.429 228.099 217.882 227.878 217.465 227.488C217.048 227.098 216.789 226.568 216.74 225.999C216.714 225.725 216.747 225.448 216.837 225.187C216.927 224.926 217.071 224.687 217.26 224.487C217.45 224.286 217.679 224.128 217.935 224.023C218.19 223.919 218.464 223.869 218.74 223.879C219.312 223.892 219.859 224.115 220.276 224.507C220.693 224.898 220.951 225.429 221 225.999Z" fill="#005599"/>
<path d="M234.7 226C234.725 226.274 234.69 226.55 234.6 226.809C234.51 227.069 234.365 227.306 234.176 227.506C233.987 227.705 233.757 227.862 233.503 227.966C233.249 228.071 232.975 228.119 232.7 228.11C232.128 228.1 231.58 227.879 231.161 227.49C230.742 227.1 230.482 226.57 230.43 226C230.414 225.727 230.454 225.454 230.547 225.198C230.64 224.941 230.785 224.706 230.972 224.507C231.159 224.309 231.385 224.151 231.636 224.043C231.887 223.935 232.157 223.879 232.43 223.88C233.005 223.888 233.555 224.109 233.975 224.501C234.395 224.893 234.653 225.428 234.7 226Z" fill="#005599"/>
<path d="M238.58 239.74C238.458 239.738 238.342 239.69 238.253 239.607C238.164 239.524 238.11 239.411 238.1 239.29C237.85 235.88 232.51 233.11 226.2 233.11C222.01 233.11 218.25 234.36 216.39 236.36C216.008 236.728 215.709 237.174 215.512 237.667C215.315 238.16 215.226 238.689 215.25 239.22C215.255 239.285 215.246 239.351 215.225 239.414C215.204 239.476 215.171 239.534 215.128 239.583C215.041 239.684 214.918 239.745 214.785 239.755C214.652 239.764 214.521 239.72 214.421 239.633C214.321 239.546 214.259 239.422 214.25 239.29C214.22 238.627 214.329 237.965 214.57 237.347C214.812 236.728 215.179 236.167 215.65 235.7C217.65 233.51 221.72 232.14 226.17 232.14C233.1 232.14 238.75 235.25 239.03 239.22C239.034 239.283 239.026 239.346 239.005 239.406C238.985 239.466 238.953 239.521 238.911 239.568C238.869 239.615 238.818 239.654 238.761 239.682C238.705 239.71 238.643 239.726 238.58 239.73V239.74Z" fill="#005599"/>
<path d="M213.17 221.72C213.048 221.717 212.931 221.671 212.84 221.59C212.749 221.498 212.698 221.374 212.698 221.245C212.698 221.116 212.749 220.992 212.84 220.9L214.97 218.61C215.062 218.522 215.183 218.473 215.31 218.473C215.437 218.473 215.559 218.522 215.65 218.61C215.695 218.654 215.731 218.707 215.755 218.766C215.779 218.824 215.791 218.887 215.791 218.95C215.791 219.013 215.779 219.076 215.755 219.134C215.731 219.192 215.695 219.245 215.65 219.29L213.52 221.58C213.474 221.626 213.42 221.662 213.36 221.686C213.299 221.71 213.235 221.721 213.17 221.72Z" fill="#005599"/>
<path d="M237.58 221.72C237.458 221.714 237.342 221.668 237.25 221.59L234.8 219.3C234.753 219.255 234.717 219.201 234.691 219.142C234.666 219.083 234.653 219.019 234.653 218.955C234.653 218.89 234.666 218.827 234.691 218.767C234.717 218.708 234.753 218.655 234.8 218.61C234.891 218.522 235.013 218.473 235.14 218.473C235.266 218.473 235.388 218.522 235.48 218.61L237.93 220.9C237.974 220.944 238.01 220.997 238.034 221.056C238.058 221.114 238.071 221.177 238.071 221.24C238.071 221.303 238.058 221.366 238.034 221.424C238.01 221.482 237.974 221.535 237.93 221.58C237.835 221.669 237.71 221.719 237.58 221.72Z" fill="#005599"/>
<path d="M202.26 265.149H204.52L207.78 269.489L207.47 265.149H209.75L210.31 272.989H208L204.76 268.679L205.07 272.989H202.79L202.26 265.149Z" fill="#005599"/>
<path d="M211.33 269.069C211.253 268.537 211.29 267.994 211.438 267.477C211.586 266.96 211.843 266.48 212.19 266.069C212.57 265.696 213.025 265.407 213.525 265.223C214.025 265.038 214.559 264.962 215.09 264.999C216.217 264.938 217.324 265.314 218.18 266.049C218.965 266.831 219.419 267.883 219.45 268.989C219.533 269.753 219.43 270.525 219.15 271.239C218.891 271.815 218.458 272.295 217.91 272.609C217.254 272.961 216.515 273.131 215.77 273.099C215.005 273.124 214.244 272.98 213.54 272.679C212.924 272.383 212.404 271.919 212.04 271.339C211.611 270.657 211.367 269.875 211.33 269.069ZM213.76 269.069C213.751 269.683 213.948 270.282 214.32 270.769C214.476 270.941 214.668 271.077 214.883 271.167C215.097 271.257 215.328 271.299 215.56 271.289C215.782 271.305 216.004 271.267 216.208 271.178C216.412 271.089 216.591 270.952 216.73 270.779C217.017 270.233 217.113 269.606 217 268.999C217.005 268.411 216.807 267.839 216.44 267.379C216.28 267.211 216.086 267.078 215.87 266.99C215.655 266.902 215.423 266.861 215.19 266.869C214.973 266.86 214.756 266.902 214.558 266.993C214.36 267.083 214.186 267.219 214.05 267.389C213.758 267.905 213.655 268.506 213.76 269.089V269.069Z" fill="#005599"/>
<path d="M224.149 265.15H227.749C228.343 265.131 228.934 265.229 229.489 265.44C229.929 265.624 230.319 265.908 230.629 266.27C230.944 266.637 231.185 267.061 231.339 267.52C231.502 268.012 231.602 268.523 231.639 269.04C231.716 269.693 231.665 270.356 231.489 270.99C231.352 271.429 231.108 271.827 230.779 272.15C230.505 272.44 230.161 272.653 229.779 272.77C229.314 272.905 228.834 272.979 228.349 272.99H224.759L224.149 265.15ZM226.699 266.93L227.009 271.21H227.599C227.964 271.234 228.33 271.176 228.669 271.04C228.893 270.91 229.058 270.699 229.129 270.45C229.244 270.006 229.271 269.544 229.209 269.09C229.229 268.48 229.042 267.881 228.679 267.39C228.494 267.222 228.275 267.094 228.038 267.015C227.8 266.936 227.549 266.907 227.299 266.93H226.699Z" fill="#005599"/>
<path d="M237.449 271.689H234.699L234.409 272.989H231.939L234.319 265.149H236.999L240.509 272.989H237.969L237.449 271.689ZM236.819 269.999L235.759 267.179L235.099 269.999H236.819Z" fill="#005599"/>
<path d="M239.37 265.149H246.73L246.87 267.089H244.4L244.82 272.989H242.4L241.98 267.089H239.51L239.37 265.149Z" fill="#005599"/>
<path d="M252.37 271.689H249.62L249.33 272.989H246.86L249.24 265.149H251.88L255.38 272.989H252.85L252.37 271.689ZM251.74 269.999L250.67 267.179L250 269.999H251.74Z" fill="#005599"/>
<path d="M353.689 173.08C354.579 172.63 355.689 172.08 356.629 171.51C357.569 170.94 358.629 170.39 359.629 169.79C361.579 168.58 363.559 167.39 365.429 166.07C369.185 163.5 372.706 160.602 375.949 157.41C376.359 157.03 376.719 156.61 377.109 156.2L377.679 155.59L377.959 155.29L378.099 155.13C377.959 155.4 378.099 155.32 378.099 155.06C378.187 154.703 378.238 154.338 378.249 153.97C378.226 151.844 377.982 149.726 377.519 147.65C376.629 143.17 375.279 138.55 373.949 134.03L377.829 132.33C380.278 136.667 382.324 141.219 383.939 145.93C384.847 148.476 385.425 151.127 385.659 153.82C385.721 154.657 385.694 155.499 385.579 156.33C385.431 157.506 385.014 158.632 384.359 159.62L384.189 159.85L384.059 160.01L383.909 160.2L383.599 160.58L382.979 161.33C382.569 161.82 382.169 162.33 381.729 162.8C378.31 166.595 374.495 170.014 370.349 173C368.349 174.48 366.229 175.9 364.059 177.19C362.989 177.84 361.899 178.46 360.789 179.07C359.679 179.68 358.599 180.24 357.319 180.84L353.689 173.08Z" fill="#FFB573"/>
<path d="M344.79 408.18C345.539 408.162 346.283 408.061 347.01 407.88C347.047 407.869 347.08 407.848 347.106 407.82C347.133 407.792 347.151 407.758 347.16 407.72C347.165 407.682 347.159 407.643 347.143 407.608C347.127 407.572 347.102 407.542 347.07 407.52C346.78 407.33 344.24 405.69 343.26 406.13C343.152 406.181 343.058 406.26 342.99 406.358C342.921 406.456 342.88 406.571 342.87 406.69C342.831 406.879 342.841 407.074 342.899 407.258C342.956 407.442 343.06 407.608 343.2 407.74C343.66 408.074 344.224 408.231 344.79 408.18ZM346.44 407.6C344.99 407.89 343.89 407.84 343.44 407.45C343.35 407.358 343.285 407.245 343.25 407.121C343.215 406.997 343.211 406.866 343.24 406.74C343.244 406.687 343.261 406.636 343.291 406.592C343.321 406.548 343.362 406.513 343.41 406.49C343.94 406.26 345.41 407 346.44 407.6Z" fill="#005599"/>
<path d="M347 407.88H347.1C347.13 407.862 347.154 407.837 347.171 407.807C347.189 407.778 347.199 407.744 347.2 407.71C347.2 407.6 347.2 405.19 346.28 404.39C346.17 404.284 346.037 404.204 345.892 404.157C345.746 404.111 345.592 404.098 345.44 404.12C345.282 404.121 345.13 404.177 345.008 404.277C344.886 404.377 344.802 404.516 344.77 404.67C344.58 405.67 346.1 407.42 346.9 407.88C346.933 407.889 346.968 407.889 347 407.88ZM345.57 404.49C345.733 404.491 345.889 404.551 346.01 404.66C346.538 405.438 346.81 406.36 346.79 407.3C345.99 406.66 345.04 405.3 345.16 404.73C345.16 404.64 345.23 404.52 345.48 404.49H345.57Z" fill="#005599"/>
<path d="M346.22 148.07C345.22 153.07 343.22 163.07 346.67 166.42C346.67 166.42 345.31 171.42 336.08 171.42C325.92 171.42 331.23 166.42 331.23 166.42C336.77 165.1 336.62 160.99 335.66 157.12L346.22 148.07Z" fill="#FFB573"/>
<path d="M329.28 168.421C327.69 168.641 329.05 164.511 329.69 164.081C331.19 163.081 350.55 161.691 350.42 164.081C350.34 165.081 349.86 167.081 349.02 167.741C348.18 168.401 343.2 166.341 329.28 168.421Z" fill="#263238"/>
<path d="M332.44 167.001C331.17 167.431 331.29 163.271 331.72 162.771C332.72 161.611 348.39 157.591 348.85 159.861C349.03 160.861 349.12 162.861 348.58 163.571C348.04 164.281 343.44 163.111 332.44 167.001Z" fill="#263238"/>
<path d="M326.609 139.11C326.546 139.113 326.484 139.101 326.426 139.075C326.369 139.049 326.319 139.01 326.279 138.96C325.974 138.567 325.581 138.251 325.131 138.037C324.681 137.823 324.187 137.718 323.689 137.73C323.637 137.737 323.584 137.734 323.534 137.72C323.483 137.706 323.436 137.682 323.395 137.649C323.354 137.616 323.32 137.576 323.295 137.53C323.27 137.483 323.254 137.433 323.249 137.38C323.241 137.277 323.273 137.175 323.338 137.095C323.403 137.015 323.497 136.963 323.599 136.95C324.229 136.918 324.857 137.039 325.43 137.302C326.003 137.565 326.503 137.962 326.889 138.46C326.956 138.542 326.989 138.646 326.979 138.751C326.97 138.855 326.92 138.952 326.839 139.02C326.771 139.069 326.692 139.1 326.609 139.11Z" fill="#263238"/>
<path d="M324.67 144C324.216 145.595 323.543 147.12 322.67 148.53C323.037 148.741 323.445 148.869 323.867 148.905C324.288 148.941 324.712 148.885 325.11 148.74L324.67 144Z" fill="#FF5652"/>
<path d="M325.16 142.791C325.23 143.461 324.92 144.041 324.48 144.081C324.04 144.121 323.63 143.621 323.57 142.941C323.51 142.261 323.81 141.691 324.24 141.651C324.67 141.611 325.09 142.111 325.16 142.791Z" fill="#263238"/>
<path d="M324.44 141.67L322.78 141.36C322.78 141.36 323.73 142.54 324.44 141.67Z" fill="#263238"/>
<path d="M356.7 407.69H348.32L348.98 388.29H357.36L356.7 407.69Z" fill="#FFB573"/>
<path d="M347.66 406.72H357.07C357.232 406.716 357.39 406.772 357.513 406.877C357.637 406.982 357.718 407.129 357.74 407.29L358.81 414.73C358.831 414.918 358.812 415.109 358.754 415.289C358.696 415.469 358.601 415.635 358.474 415.776C358.348 415.917 358.193 416.029 358.02 416.106C357.846 416.182 357.659 416.221 357.47 416.22C354.19 416.17 352.61 415.97 348.47 415.97C345.92 415.97 342.2 416.24 338.69 416.24C335.18 416.24 334.98 412.76 336.45 412.45C343.01 411.03 344.05 409.09 346.26 407.23C346.653 406.903 347.148 406.723 347.66 406.72Z" fill="#263238"/>
<g opacity="0.2">
<path d="M357.36 388.29H348.98L348.64 398.29H357.02L357.36 388.29Z" fill="black"/>
</g>
<path d="M323.37 178C318.242 176.006 313.219 173.754 308.32 171.25C303.26 168.778 298.439 165.842 293.92 162.48C292.713 161.534 291.57 160.509 290.5 159.41C290.22 159.11 289.94 158.83 289.67 158.48C289.353 158.123 289.059 157.745 288.79 157.35C288.052 156.276 287.592 155.036 287.45 153.74C287.34 152.512 287.507 151.275 287.94 150.12C288.287 149.192 288.761 148.317 289.35 147.52C290.316 146.199 291.456 145.015 292.74 144C295.006 142.196 297.452 140.631 300.04 139.33C301.28 138.67 302.54 138.08 303.82 137.53C305.1 136.98 306.36 136.46 307.73 135.99L309.5 139.84C305.14 142.59 300.62 145.62 297.3 149C296.557 149.753 295.903 150.589 295.35 151.49C294.87 152.28 294.88 152.87 294.96 152.82C295.04 152.77 294.96 152.82 295.1 152.92L295.5 153.35C295.65 153.53 295.86 153.71 296.05 153.9C296.897 154.68 297.796 155.401 298.74 156.06C300.804 157.522 302.955 158.858 305.18 160.06C307.43 161.32 309.75 162.51 312.11 163.65C316.83 165.91 321.71 168.08 326.5 170.06L323.37 178Z" fill="#FFB573"/>
<path d="M312 137.15L313.38 134.15L307.06 132C307.06 132 305.06 137.91 307.43 140.63C308.421 140.474 309.357 140.074 310.154 139.467C310.952 138.86 311.586 138.063 312 137.15Z" fill="#FFB573"/>
<path d="M313.35 127.66L308.32 126.2L307.06 131.96L313.35 134.15V127.66Z" fill="#FFB573"/>
<path d="M378.35 134.44L379.08 127.44L372.6 129C372.6 129 372.5 135.58 375.93 136.62L378.35 134.44Z" fill="#FFB573"/>
<path d="M375.959 122.511L371.729 124.481L372.599 128.951L379.079 127.421L375.959 122.511Z" fill="#FFB573"/>
<path d="M347.54 138.25C347.85 146.56 348.15 150.07 344.4 154.72C338.75 161.72 328.48 160.27 325.7 152.22C323.2 144.98 323.12 132.61 330.88 128.53C332.586 127.623 334.496 127.167 336.428 127.205C338.359 127.243 340.25 127.775 341.918 128.748C343.587 129.722 344.98 131.106 345.964 132.769C346.948 134.432 347.49 136.319 347.54 138.25Z" fill="#FFB573"/>
<path d="M343.92 154.71C352.08 151.18 357.44 143.71 355.18 132.13C353.01 121.02 345.51 119.92 342.41 122.22C339.31 124.52 331.58 121.09 326.94 124.99C318.94 131.76 326.5 138.99 330.46 143.36C332.82 148.22 335.92 158.16 343.92 154.71Z" fill="#263238"/>
<path d="M340.53 130.141C341.526 131.418 342.873 132.375 344.407 132.895C345.94 133.415 347.592 133.474 349.159 133.066C350.726 132.658 352.139 131.8 353.223 130.598C354.308 129.396 355.017 127.902 355.263 126.302C355.508 124.702 355.28 123.064 354.606 121.592C353.932 120.12 352.841 118.878 351.469 118.018C350.097 117.159 348.503 116.72 346.884 116.756C345.266 116.792 343.693 117.301 342.36 118.221C340.538 119.559 339.321 121.567 338.978 123.802C338.635 126.037 339.193 128.317 340.53 130.141Z" fill="#005599"/>
<path d="M342.65 123C341.48 116.3 347.81 111.14 356.29 113.63C364.77 116.12 360.29 123.63 358.54 129.63C356.79 135.63 361.37 141.35 363.27 136.78C365.17 132.21 361.97 130.78 361.97 130.78C361.97 130.78 370.97 133.11 362.61 143.26C354.25 153.41 346.68 142.2 348.73 135.59C350.39 130.28 343.76 129.33 342.65 123Z" fill="#263238"/>
<path d="M334.18 125.531C330.31 123.531 323.76 121.881 320.03 128.161C318.27 131.161 318.95 135.161 318.95 135.161L330.34 135.911L334.18 125.531Z" fill="#263238"/>
<path d="M317.61 133.181C317.543 133.176 317.481 133.145 317.436 133.094C317.391 133.044 317.368 132.978 317.37 132.911C317.37 132.741 317.66 128.721 320.09 126.201C325.96 120.101 332.84 125.201 334.8 126.851C334.843 126.895 334.867 126.954 334.869 127.015C334.87 127.077 334.85 127.137 334.81 127.184C334.77 127.23 334.715 127.261 334.654 127.27C334.593 127.279 334.531 127.265 334.48 127.231C332.59 125.611 326.01 120.761 320.48 126.541C318.18 128.931 317.9 132.901 317.9 132.941C317.899 132.976 317.891 133.011 317.875 133.043C317.86 133.075 317.837 133.104 317.81 133.127C317.782 133.149 317.75 133.166 317.716 133.175C317.682 133.185 317.646 133.186 317.61 133.181Z" fill="#263238"/>
<path d="M331.85 143C331.805 144.574 331.223 146.084 330.2 147.28C328.82 148.9 327.2 148.1 326.87 146.28C326.54 144.67 326.87 141.88 328.61 140.91C330.35 139.94 331.87 141.18 331.85 143Z" fill="#FFB573"/>
<path d="M330.05 219.12C330.05 219.12 330.59 277.27 335.63 309.67C339.71 335.84 347.24 396.36 347.24 396.36H358.67C358.67 396.36 359.78 337.93 357.67 312.05C352.44 246.55 365.95 234.3 355.05 219.12H330.05Z" fill="#263238"/>
<path opacity="0.1" d="M330.05 219.12C330.05 219.12 330.59 277.27 335.63 309.67C339.71 335.84 347.24 396.36 347.24 396.36H358.67C358.67 396.36 359.78 337.93 357.67 312.05C352.44 246.55 365.95 234.3 355.05 219.12H330.05Z" fill="white"/>
<path opacity="0.3" d="M336.06 245.5C340.06 263.05 336.87 290.69 334.68 302.86C332.36 284.38 331.19 260.43 330.61 242.86C332.68 239.52 334.64 239.3 336.06 245.5Z" fill="black"/>
<path d="M345.68 396.58H360.23L360.99 391.48L345.6 390.96L345.68 396.58Z" fill="#005599"/>
<path d="M349.83 170C351.2 167.28 358.56 165.57 362.58 165.58L365.58 178.94C365.58 178.94 357.58 190.83 354.24 189.57C350.31 188.12 346.9 175.87 349.83 170Z" fill="#005599"/>
<path opacity="0.4" d="M349.83 170C351.2 167.28 358.56 165.57 362.58 165.58L365.58 178.94C365.58 178.94 357.58 190.83 354.24 189.57C350.31 188.12 346.9 175.87 349.83 170Z" fill="black"/>
<path d="M341.35 393.31C341.367 393.281 341.375 393.248 341.375 393.215C341.375 393.182 341.367 393.149 341.35 393.12C341.331 393.082 341.301 393.05 341.263 393.031C341.225 393.011 341.182 393.004 341.14 393.01C340.72 393.08 337.02 393.66 336.52 394.72C336.466 394.817 336.438 394.925 336.438 395.035C336.438 395.145 336.466 395.254 336.52 395.35C336.606 395.508 336.729 395.643 336.879 395.742C337.029 395.842 337.201 395.903 337.38 395.92C338.59 396.04 340.38 394.36 341.28 393.34L341.35 393.31ZM336.91 394.85C337.25 394.29 339.17 393.77 340.63 393.5C339.31 394.84 338.15 395.59 337.47 395.5C337.352 395.488 337.24 395.447 337.142 395.381C337.044 395.315 336.964 395.225 336.91 395.12C336.888 395.082 336.876 395.039 336.876 394.995C336.876 394.951 336.888 394.908 336.91 394.87C336.91 394.87 336.9 394.86 336.91 394.85Z" fill="#005599"/>
<path d="M341.35 393.31C341.367 393.281 341.376 393.249 341.376 393.215C341.376 393.182 341.367 393.149 341.35 393.12C341.29 393.05 339.81 391.34 338.44 391.25C338.243 391.234 338.044 391.258 337.857 391.322C337.669 391.385 337.497 391.487 337.35 391.62C336.94 391.99 336.98 392.31 337.08 392.51C337.51 393.37 340.17 393.67 341.24 393.44C341.268 393.429 341.292 393.412 341.312 393.389C341.331 393.366 341.344 393.339 341.35 393.31ZM337.44 392.05C337.484 391.982 337.538 391.922 337.6 391.87C337.705 391.771 337.829 391.695 337.966 391.649C338.102 391.602 338.247 391.586 338.39 391.6C339.321 391.829 340.156 392.343 340.78 393.07C339.59 393.17 337.67 392.81 337.41 392.29C337.394 392.251 337.388 392.208 337.393 392.166C337.398 392.124 337.415 392.084 337.44 392.05Z" fill="#005599"/>
<path d="M350.08 389.761L342.42 393.171L339.01 386.061L334.55 376.761L334.02 375.681L341.68 372.271L342.27 373.491L346.59 382.501L350.08 389.761Z" fill="#FFB573"/>
<path opacity="0.2" d="M346.59 382.5L339.01 386.06L334.55 376.76L342.27 373.49L346.59 382.5Z" fill="black"/>
<path d="M321.07 219.12C321.07 219.12 296.6 280 303.23 308.6C309.23 334.49 335.73 383.52 335.73 383.52L346 378.38C346 378.38 329.61 319.19 327.84 306.33C324.38 281.33 346.61 246 346.61 219.12H321.07Z" fill="#263238"/>
<path opacity="0.1" d="M321.07 219.12C321.07 219.12 296.6 280 303.23 308.6C309.23 334.49 335.73 383.52 335.73 383.52L346 378.38C346 378.38 329.61 319.19 327.84 306.33C324.38 281.33 346.61 246 346.61 219.12H321.07Z" fill="white"/>
<path d="M341.06 392.1L348.66 386.57C348.789 386.47 348.949 386.42 349.112 386.431C349.274 386.442 349.427 386.513 349.54 386.63L354.79 392.02C354.918 392.16 355.014 392.326 355.073 392.507C355.132 392.687 355.152 392.878 355.132 393.067C355.112 393.255 355.053 393.438 354.958 393.602C354.863 393.766 354.734 393.909 354.58 394.02C351.89 395.9 350.5 396.68 347.16 399.11C345.1 400.61 341 403.92 338.16 405.99C335.32 408.06 333.16 405.36 334.16 404.25C338.64 399.25 339.58 396.15 340.28 393.34C340.389 392.849 340.664 392.41 341.06 392.1Z" fill="#263238"/>
<path d="M335.069 385.69L348.299 379.64L346.609 374.25L332.439 380.71L335.069 385.69Z" fill="#005599"/>
<path d="M327.56 169.36C326.47 166.52 316.91 163.36 312.11 162.36L310 178.08C310 178.08 317.84 189.34 321.27 188.41C325.33 187.31 329.92 175.45 327.56 169.36Z" fill="#005599"/>
<path opacity="0.4" d="M327.56 169.36C326.47 166.52 316.91 163.36 312.11 162.36L310 178.08C310 178.08 317.84 189.34 321.27 188.41C325.33 187.31 329.92 175.45 327.56 169.36Z" fill="black"/>
<path d="M317.07 168.57C317.07 168.57 313.07 169.97 321.07 219.12H355.07C354.5 205.28 354.48 196.74 361.07 168.32C356.306 167.337 351.477 166.702 346.62 166.42C341.48 166.05 336.32 166.05 331.18 166.42C324.59 167 317.07 168.57 317.07 168.57Z" fill="#005599"/>
<path opacity="0.4" d="M317.07 168.57C317.07 168.57 313.07 169.97 321.07 219.12H355.07C354.5 205.28 354.48 196.74 361.07 168.32C356.306 167.337 351.477 166.702 346.62 166.42C341.48 166.05 336.32 166.05 331.18 166.42C324.59 167 317.07 168.57 317.07 168.57Z" fill="black"/>
<path d="M355.6 217.131L357.13 220.131C357.25 220.371 356.97 220.611 356.58 220.611H320.9C320.59 220.611 320.34 220.461 320.32 220.261L320.01 217.261C320.01 217.051 320.26 216.871 320.59 216.871H355C355.114 216.853 355.231 216.868 355.338 216.914C355.444 216.96 355.535 217.035 355.6 217.131Z" fill="#005599"/>
<path opacity="0.3" d="M355.6 217.131L357.13 220.131C357.25 220.371 356.97 220.611 356.58 220.611H320.9C320.59 220.611 320.34 220.461 320.32 220.261L320.01 217.261C320.01 217.051 320.26 216.871 320.59 216.871H355C355.114 216.853 355.231 216.868 355.338 216.914C355.444 216.96 355.535 217.035 355.6 217.131Z" fill="white"/>
<path d="M350.999 221H351.92C352.11 221 352.25 220.9 352.23 220.79L351.799 216.79C351.799 216.67 351.63 216.58 351.45 216.58H350.519C350.339 216.58 350.199 216.67 350.209 216.79L350.64 220.79C350.63 220.88 350.789 221 350.999 221Z" fill="#263238"/>
<path d="M328.61 221H329.53C329.71 221 329.85 220.9 329.84 220.79L329.41 216.79C329.41 216.67 329.24 216.58 329.05 216.58H328.13C327.94 216.58 327.81 216.67 327.82 216.79L328.25 220.79C328.26 220.88 328.42 221 328.61 221Z" fill="#263238"/>
</svg>
